<svg width="48" height="61" viewBox="0 0 48 61" fill="none" xmlns="http://www.w3.org/2000/svg">
<path d="M46.4165 16.0899C46.5149 16.0819 46.6196 16.0946 46.71 16.0645C47.2048 15.9043 47.3159 16.1755 47.3508 16.5895C47.4285 17.5364 47.4967 18.4817 47.4951 19.4318C47.4919 23.091 47.4903 26.7502 47.4951 30.4094C47.4983 33.3691 46.3055 35.7166 43.8994 37.4375C43.663 37.6056 43.5869 37.7928 43.5472 38.0672C43.2554 40.1054 42.7685 42.0944 42.0182 44.0152C41.7613 44.6734 41.9405 45.1603 42.5876 45.514C44.0231 46.3023 45.4601 47.0843 46.8971 47.8694C46.9939 47.9218 47.0843 47.9836 47.2572 48.0899C46.2087 48.6657 45.265 49.2858 44.2435 49.7236C42.7684 50.3549 41.7692 51.3557 41.1316 52.8261C40.6875 53.8523 40.0689 54.8024 39.4836 55.8683C38.7175 54.4725 37.9847 53.1417 37.2154 51.7412C36.2828 52.7373 35.3073 53.6413 34.27 54.4756C34.1368 54.5819 34.1717 54.7247 34.1717 54.8563C34.1748 56.8342 34.1812 58.8121 34.1875 60.7884H32.4079C32.4015 59.3276 32.3968 57.8684 32.3873 56.4075C32.3873 56.2569 32.4111 56.03 32.3286 55.9698C32.1589 55.8445 32.0161 56.0554 31.875 56.1411C29.9034 57.3227 27.8208 58.2395 25.5891 58.8089C25.3512 58.8692 25.1403 58.8835 24.8976 58.82C23.6192 58.4822 22.3788 58.0476 21.1686 57.5115C20.1297 57.0515 19.1495 56.4805 18.0471 55.8445V60.7868H16.2675C16.277 58.8105 16.2834 56.8342 16.304 54.8579C16.3072 54.6009 16.1739 54.4741 16.001 54.3297C10.8398 50.063 7.8087 44.6068 6.90303 37.9752C6.86655 37.704 6.74283 37.5628 6.53981 37.4169C4.18124 35.7166 2.96944 33.4151 2.96469 30.4998C2.95676 26.7232 2.91234 22.9451 2.97896 19.1685C3.02813 16.3738 3.38025 13.6108 4.68246 11.0682C4.85851 10.724 4.65391 10.6701 4.44771 10.5527C3.02337 9.74538 1.60221 8.93328 0.179454 8.12436C0.177868 8.12436 0.176282 8.12278 0.174696 8.12119C-0.0616368 7.98637 -0.0568771 7.64535 0.181041 7.5137C1.55938 6.75712 2.90124 6.01482 4.25262 5.28837C4.54605 5.13135 4.74114 4.92832 4.89817 4.63648C5.6373 3.26289 6.3923 1.89724 7.16315 0.493522C7.27418 0.290498 7.56762 0.290498 7.67864 0.493522C8.34482 1.71008 8.99354 2.88857 9.62799 4.0734C9.79136 4.37794 9.88812 4.47786 10.2133 4.20664C13.1888 1.73704 16.6735 0.560139 20.4834 0.247673C23.919 -0.0330708 27.3783 -0.144099 30.7869 0.288912C37.2694 1.11528 42.1007 4.52069 45.3015 10.2291C45.4633 10.5162 45.449 10.6764 45.127 10.797C44.9858 10.8493 44.8637 10.9572 44.7321 11.0381C43.8851 11.3378 43.8898 11.3347 43.3981 10.4924C41.7962 7.75004 39.6073 5.61036 36.8411 4.04327C33.3453 2.06537 29.5545 1.71484 25.6494 1.93055C25.0372 1.92103 24.4233 1.93689 23.8143 1.89566C23.3575 1.86393 23.0196 2.03841 22.7024 2.33343C21.2908 3.64515 21.4176 5.97041 22.9673 7.10766C23.1751 7.25992 23.3844 7.38047 23.6715 7.34875C25.3116 7.16634 26.9453 7.25199 28.5742 7.48991C32.576 8.07519 36.0496 9.72317 38.8063 12.7209C42.1277 16.331 43.5568 20.7023 43.8137 25.521C43.8883 26.931 43.874 26.9326 45.2951 26.8644L45.3856 26.8676C45.6584 26.8898 45.7186 26.7328 45.7155 26.4774C45.7012 25.2133 45.7012 23.9491 45.6948 22.685C45.7313 20.88 45.7504 19.075 45.6076 17.2715C45.5315 16.3024 45.5426 16.3024 46.4181 16.0835L46.4165 16.0899ZM9.12519 12.602L9.13312 12.5925C9.01416 12.6353 8.9983 12.7336 9.00306 12.8415L9.01892 12.8272C8.92692 12.8272 8.91106 12.8938 8.90154 12.9636C8.79051 13.1429 8.67473 13.3205 8.56687 13.5029C8.16241 14.1865 7.87057 14.9368 7.37252 15.5665C7.21391 15.2905 7.05371 15.0129 6.8951 14.7369C6.59215 14.1611 6.28761 13.5838 5.92122 12.8891C5.17574 14.8083 4.78555 16.6165 4.757 18.4865C4.72052 20.8784 4.74273 23.2703 4.73956 25.6637C4.73956 26.8977 4.73956 26.8803 5.99101 26.885C6.40498 26.8866 6.5287 26.7645 6.52712 26.3521C6.52236 24.7263 6.72539 23.118 7.12033 21.543C8.9301 14.3198 13.054 9.34885 20.6151 7.75004C20.9735 7.6739 20.9307 7.55018 20.7594 7.32813C20.466 6.94904 20.3026 6.50176 20.1107 6.07033C19.7601 4.65392 19.8617 3.29462 20.6896 1.96227C17.1304 2.26046 14.0374 3.48178 11.2443 5.66587C12.5909 6.38914 13.874 7.07911 15.1572 7.76748C15.0478 7.97527 14.8273 8.02761 14.6449 8.13071C13.9185 8.53834 13.1888 8.93963 12.4608 9.34409C12.3783 9.40278 12.2958 9.45988 12.2134 9.51856L12.2165 9.50429C11.8517 9.68987 11.5012 9.91034 11.1205 10.0531C9.98963 10.4813 9.61689 11.4822 9.2267 12.4767H9.25366C9.12043 12.4291 9.13629 12.5322 9.12202 12.6052L9.12519 12.602ZM37.2376 47.1224C36.6539 47.4237 36.0718 47.7251 35.4009 48.0709C35.8736 48.3342 36.2304 48.5832 36.6238 48.7418C37.6865 49.1669 38.4066 49.9013 38.8301 50.9608C38.9887 51.3589 39.2409 51.7205 39.4899 52.1678C39.8421 51.4937 40.1672 50.8704 40.4924 50.2486C40.7668 49.6459 41.2664 49.3017 41.8422 49.0194C42.3989 48.7482 42.9302 48.423 43.552 48.0788C42.7796 47.6553 42.1023 47.2651 41.4076 46.9098C41.057 46.7306 40.8191 46.4863 40.6415 46.1374C40.283 45.4363 39.8896 44.7527 39.509 44.0596C38.6794 45.0874 38.5351 46.5244 37.2376 47.1208V47.1224ZM8.42412 9.99599C8.69852 9.36154 9.22512 9.01735 9.8215 8.72709C10.3703 8.46221 10.8937 8.14498 11.4885 7.81665C10.7319 7.40109 10.0864 7.02042 9.41703 6.68733C9.02843 6.49383 8.75562 6.23212 8.55894 5.8451C8.20999 5.15672 7.82298 4.48579 7.41852 3.74666C7.13619 4.25739 6.89193 4.68406 6.66194 5.11707C6.30347 5.78959 6.01956 6.52238 5.21539 6.81264C4.61584 7.13145 4.01628 7.45184 3.33901 7.81189C4.10352 8.23222 4.78238 8.62558 5.48027 8.98245C5.82922 9.16169 6.07349 9.40119 6.25272 9.75014C6.61436 10.4544 7.0093 11.1412 7.43121 11.9073C7.79443 11.2094 8.11166 10.6019 8.42729 9.99281L8.42412 9.99599ZM20.8419 9.58518C20.7435 9.61214 20.6468 9.63911 20.5484 9.66607C20.4517 9.66925 20.3502 9.65497 20.2566 9.67718C15.963 10.7399 12.6733 13.0984 10.6304 17.0923C9.56772 19.1701 8.90155 21.3669 8.55101 23.6652C8.52405 23.8444 8.2893 24.0649 8.5177 24.1965C8.76355 24.3377 8.89044 24.0459 9.03319 23.9031C9.91508 23.0149 10.8683 22.2266 11.9755 21.627C13.4823 20.8118 15.1366 20.6912 16.7925 20.5612C18.2343 20.447 19.5873 20.0679 20.7943 19.2415C21.5715 18.7086 21.5747 18.7133 22.2678 19.2732C22.7468 20.0647 22.7405 20.0552 21.9426 20.6436C20.3534 21.8158 18.523 22.2329 16.6053 22.3344C14.066 22.4677 11.8644 23.2877 10.2149 25.3148C9.69143 25.8239 9.17753 26.341 8.64301 26.8359C8.39557 27.0643 8.27344 27.3101 8.25599 27.6543C8.02917 31.9146 8.17827 36.1496 9.17119 40.3179C10.0562 44.0342 11.5662 47.4555 14.0913 50.3739C16.8893 53.6112 20.4485 55.6256 24.4963 56.8675C25.034 57.0325 25.5194 57.0103 26.0459 56.8437C29.6195 55.7096 32.6997 53.7857 35.3327 51.1273C35.8233 50.6314 35.7298 50.246 35.052 49.9711C33.9655 49.3509 32.8774 48.7307 31.7211 48.0725C32.6093 47.5839 33.396 47.0462 34.2605 46.6989C36.1226 45.9502 37.355 44.6544 38.1195 42.8176C38.4748 41.9643 38.9982 41.1808 39.482 40.302C39.8976 41.0475 40.2655 41.7089 40.6748 42.4449C41.4329 40.4321 41.7438 38.4304 41.9056 36.3986C42.1689 33.1026 42.0135 29.8003 42.0436 26.5028C42.0468 26.2125 41.9516 25.9682 41.8326 25.7161C40.494 22.8817 38.5969 20.4882 36.1416 18.5404C33.3453 16.323 30.1683 14.9685 26.6487 14.4022C26.1792 14.3261 25.927 14.3705 25.8207 14.9526C25.6114 16.0851 25.0959 17.1113 24.4646 18.0805C24.2552 18.4009 24.0776 18.5595 23.7603 18.22C23.6969 18.1518 23.5954 18.1201 23.5113 18.0709C23.4257 17.9932 23.3495 17.8965 23.2512 17.8425C22.7944 17.5919 22.7563 17.3302 23.0847 16.8956C23.4574 16.4039 23.7619 15.8504 23.8492 15.2127C24.252 14.3277 24.2663 13.376 24.3425 12.4323C24.3853 11.8962 24.0792 11.1586 24.49 10.8779C24.8659 10.6225 25.5574 10.8303 26.1094 10.8335C26.1126 11.2681 26.1316 11.7027 26.1126 12.1357C26.0967 12.4656 26.2299 12.5703 26.5488 12.6131C31.7497 13.3221 36.1305 15.6236 39.7231 19.435C40.2592 20.0044 40.7414 20.6262 41.2489 21.2226C41.1459 20.4565 40.965 19.7237 40.6684 19.0226C39.547 16.1517 37.9847 13.5997 35.3026 11.9263C30.8789 9.16803 26.0808 8.54786 21.0227 9.54711C20.964 9.5598 20.9053 9.57408 20.8466 9.58677L20.8419 9.58518ZM6.50967 35.1805C6.50967 33.0217 6.5065 30.9994 6.51284 28.9787C6.51284 28.7075 6.37961 28.6107 6.15121 28.6599C5.68489 28.7582 5.15354 28.4156 4.74432 28.8709C4.7237 28.8931 4.73797 28.947 4.73956 28.9866C4.76494 30.0097 4.65866 31.0375 4.8712 32.0526C5.11071 33.2026 5.57227 34.2351 6.50967 35.182V35.1805ZM43.9168 35.1773C44.3926 34.6903 44.713 34.2557 44.9763 33.7751C45.8122 32.2461 45.7535 30.5791 45.7218 28.9153C45.717 28.7043 45.6013 28.6726 45.4173 28.652C43.9517 28.4807 43.9168 28.5076 43.9168 29.9685V35.1773Z" fill="#030303"/>
<path d="M18.0439 60.7916V55.8492C19.1463 56.4837 20.1265 57.0563 21.1654 57.5162C22.3756 58.0508 23.616 58.4869 24.8944 58.8248C25.1355 58.8882 25.3465 58.874 25.586 58.8137C27.8176 58.2443 29.9002 57.3275 31.8718 56.1458C32.0145 56.0602 32.1557 55.8508 32.3254 55.9745C32.4079 56.0348 32.3841 56.2616 32.3841 56.4123C32.3936 57.8731 32.3984 59.3323 32.4047 60.7932H18.0439V60.7916Z" fill="#ECB280"/>
<path d="M46.4167 16.0899C45.5395 16.3088 45.53 16.3088 45.6061 17.2779C45.7489 19.0813 45.7299 20.8863 45.6934 22.6913C45.3349 21.1464 45.024 19.592 44.4324 18.1058C43.5807 15.963 42.5195 13.9375 41.0318 12.1785C38.8683 9.61849 36.1417 7.84838 32.9711 6.7714C30.7013 5.99896 28.3602 5.61353 25.9636 5.57705C25.9779 5.12501 25.9779 4.67296 26.0096 4.22409C26.0334 3.8799 25.8827 3.80059 25.5623 3.79108C24.2093 3.74984 24.2093 3.73873 24.2252 5.1028C24.2268 5.25983 24.2442 5.41685 24.2538 5.57388C23.5876 5.61988 23.4655 5.50885 23.383 4.8633C23.2957 4.18444 23.5511 3.65467 23.9873 3.14711C24.452 2.60783 25.1341 2.39687 25.6464 1.94007C29.5498 1.72436 33.3422 2.07489 36.8381 4.05279C39.6058 5.61829 41.7931 7.75956 43.3951 10.502C43.8868 11.3442 43.882 11.3474 44.729 11.0476C45.0859 11.5123 45.2477 12.0706 45.4682 12.6004C45.1129 12.8542 44.388 12.786 44.7893 13.6346C45.2049 14.5164 45.1303 14.5513 46.0899 14.3499C46.1994 14.9304 46.3072 15.5094 46.4167 16.0899Z" fill="#9E8CE0"/>
<path d="M10.2149 25.3163C11.8629 23.2909 14.066 22.4693 16.6054 22.336C18.5246 22.2345 20.355 21.8174 21.9427 20.6452C22.7406 20.0568 22.7469 20.0647 22.2679 19.2748C22.785 18.9798 23.1403 18.5182 23.5082 18.0693C23.5923 18.1185 23.6938 18.1502 23.7573 18.2184C24.0745 18.5579 24.2521 18.3993 24.4615 18.0789C25.0928 17.1113 25.6083 16.0835 25.8176 14.951C25.9255 14.3705 26.1777 14.3261 26.6456 14.4006C30.1652 14.9669 33.3422 16.3199 36.1385 18.5388C38.5923 20.4866 40.4909 22.8785 41.8295 25.7145C41.9485 25.9667 42.0437 26.2109 42.0405 26.5012C42.0104 29.8003 42.1658 33.101 41.9025 36.397C41.7407 38.4288 41.4298 40.4305 40.6717 42.4433C40.2625 41.7089 39.8945 41.0475 39.4789 40.3005C38.9967 41.1792 38.4717 41.9627 38.1164 42.816C37.3535 44.6528 36.1195 45.9471 34.2574 46.6973C33.393 47.0447 32.6062 47.5839 31.718 48.0709C32.8743 48.7307 33.9608 49.3493 35.0489 49.9695C34.8538 50.1027 34.6444 50.2185 34.4668 50.3723C31.875 52.6215 28.9185 54.1822 25.6114 55.0863C25.4227 55.1386 25.2498 55.172 25.0404 55.1164C24.0063 54.8436 23.0054 54.4804 22.0506 54.0061C19.6222 52.8023 17.4905 51.213 15.7029 49.1542C14.0962 47.3048 12.8162 45.2666 11.8613 43.0159C10.5702 39.969 10.1975 36.7475 10.1118 33.4896C10.0405 30.7663 10.0357 28.0381 10.2149 25.3148V25.3163ZM18.7039 25.0768V25.0895C17.6364 25.0895 16.5674 25.0657 15.5015 25.0959C14.0708 25.1371 12.7448 25.5543 11.5346 26.3219C10.2403 27.1436 10.2451 27.1626 11.3062 28.2396C11.4965 28.4331 11.6187 28.5108 11.8693 28.2967C13.0811 27.2641 14.5086 26.847 16.0868 26.8612C17.8061 26.8771 19.5271 26.8644 21.248 26.8644C22.6057 26.8644 22.593 26.8644 22.5724 25.5019C22.5677 25.172 22.4852 25.0642 22.1442 25.0705C20.9974 25.0911 19.8506 25.0784 18.7039 25.0784V25.0768ZM25.2022 47.2984C26.9359 47.3111 28.5696 46.9225 30.0795 46.0628C31.1454 45.4554 31.1422 45.4506 30.4586 44.472C30.4253 44.4228 30.3841 44.3784 30.3587 44.326C30.1842 43.9549 29.9987 43.9771 29.6465 44.1785C26.9517 45.7123 24.1792 45.7773 21.3543 44.5417C21.0022 44.3879 20.6945 43.9057 20.3661 44.0405C20.0568 44.1674 19.9157 44.6623 19.6571 44.9573C19.3685 45.2841 19.4509 45.4633 19.784 45.6869C21.4257 46.7909 23.2386 47.2921 25.2022 47.3V47.2984ZM32.04 25.0768H29.2611C27.9589 25.0768 27.9795 25.0768 27.9621 26.3616C27.9557 26.7914 28.0905 26.8787 28.4934 26.8739C30.53 26.8533 32.5666 26.8612 34.6032 26.866C35.7943 26.8692 36.8999 27.1753 37.9261 27.7923C38.2687 27.9985 38.5621 28.5108 38.9158 28.3966C39.2806 28.2776 39.5186 27.8002 39.8374 27.5068C40.0927 27.272 40.0023 27.1404 39.7803 26.9564C38.8238 26.1586 37.7469 25.605 36.5367 25.3116C34.9759 24.9341 33.3866 25.1371 32.0384 25.08L32.04 25.0768ZM17.1701 35.7467C19.1765 35.6658 20.7722 34.8807 21.8206 33.1359C22.2631 32.4 22.2504 32.3936 21.4368 32.0701C21.3083 32.0193 21.1735 31.9812 21.0529 31.9146C20.7056 31.7195 20.5136 31.7687 20.2995 32.1621C19.1258 34.3128 16.0408 34.5793 14.4626 32.7077C14.2342 32.438 14.212 31.9067 13.8027 31.9114C13.4554 31.9162 13.1207 32.2033 12.7638 32.3112C12.2912 32.4555 12.3388 32.6791 12.545 33.036C13.5807 34.8236 15.1684 35.642 17.1701 35.7483V35.7467ZM33.1011 35.7467C34.9632 35.6721 36.4907 34.9949 37.5581 33.4389C38.1561 32.5665 38.1513 32.5618 37.2123 32.1557C37.1394 32.124 37.0617 32.1034 36.9966 32.0621C36.6207 31.8163 36.4145 31.8575 36.1481 32.2969C34.9061 34.3477 31.967 34.5397 30.4269 32.7204C30.1937 32.4444 30.124 31.9194 29.7687 31.9035C29.4134 31.8877 29.0454 32.1732 28.6838 32.327C28.6663 32.3349 28.6489 32.3476 28.6298 32.3524C28.2492 32.4444 28.2603 32.6379 28.43 32.9424C29.4546 34.7871 31.0629 35.6373 33.1027 35.7483L33.1011 35.7467Z" fill="#F5DEB9"/>
<path d="M21.0178 9.54711C26.076 8.54785 30.874 9.16803 35.2977 11.9263C37.9798 13.5997 39.5422 16.1517 40.6636 19.0226C40.4494 18.9845 40.3241 18.8228 40.2067 18.6673C38.8316 16.8623 37.1677 15.365 35.2882 14.1088C32.5045 12.2499 29.4671 11.0825 26.1061 10.8319C25.5541 10.8287 24.8626 10.6209 24.4867 10.8763C24.0759 11.1554 24.382 11.8946 24.3392 12.4307C24.263 13.3744 24.2488 14.3261 23.8459 15.2112C23.6793 15.2175 23.6254 15.3587 23.5414 15.4633C21.9949 17.4127 19.9313 18.4595 17.5236 18.8894C15.3268 19.2827 13.0539 19.4096 11.1236 20.807C11.1093 20.6912 11.0839 20.6325 11.0982 20.5849C12.3243 16.2453 14.8351 12.9081 18.7877 10.6733C19.3746 10.3418 20.0566 10.1673 20.5467 9.66607C20.6451 9.6391 20.7418 9.61214 20.8402 9.58518C20.91 9.62166 20.9687 9.60421 21.0162 9.54552L21.0178 9.54711ZM14.5782 16.1961C13.59 16.2072 13.6566 16.0756 13.663 16.9131C13.6725 18.1598 13.5028 18.0345 14.4053 18.0345C15.5584 18.0345 15.4426 18.174 15.4394 17.262C15.4347 16.0597 15.6091 16.212 14.5782 16.1946V16.1961ZM19.0034 17.1113C18.9892 16.1137 19.1383 16.1961 18.2231 16.1977C17.108 16.2009 17.2286 16.0677 17.2222 16.9464C17.2143 18.0376 17.2206 18.044 18.0581 18.0376C19.151 18.0281 18.986 18.174 19.0034 17.1113Z" fill="#D1CAEC"/>
<path d="M10.2146 25.3164C10.0354 28.0397 10.0402 30.7679 10.1116 33.4912C10.1972 36.7491 10.5699 39.9705 11.861 43.0175C12.8159 45.2698 14.0975 47.3064 15.7026 49.1558C17.4902 51.2146 19.6219 52.8039 22.0503 54.0077C23.0051 54.4804 24.006 54.8452 25.0401 55.118C25.2511 55.1735 25.4224 55.1402 25.6111 55.0879C28.9182 54.1838 31.8747 52.623 34.4665 50.3739C34.6441 50.2201 34.8535 50.1043 35.0486 49.9711C35.7264 50.246 35.82 50.6314 35.3293 51.1273C32.6964 53.7841 29.6161 55.7096 26.0426 56.8437C25.516 57.0103 25.0306 57.0325 24.4929 56.8675C20.4451 55.6272 16.8859 53.6112 14.088 50.3739C11.5644 47.4555 10.0544 44.0326 9.16781 40.3179C8.17489 36.1496 8.0258 31.9146 8.25261 27.6543C8.27006 27.3117 8.39219 27.0658 8.63963 26.8359C9.17574 26.341 9.68964 25.8239 10.2115 25.3148L10.2146 25.3164Z" fill="#EDB381"/>
<path d="M25.6461 1.94007C25.1338 2.39687 24.4533 2.60783 23.987 3.14711C23.5508 3.65467 23.2955 4.18443 23.3827 4.86329C23.4652 5.50885 23.5873 5.61987 24.2535 5.57388C24.8229 5.57546 25.3923 5.57705 25.9633 5.57864C28.3615 5.61512 30.7011 6.00054 32.9708 6.77299C36.1415 7.84996 38.8664 9.62166 41.0315 12.1801C42.5193 13.9391 43.5804 15.963 44.4321 18.1074C45.0222 19.5952 45.3346 21.148 45.6931 22.6929C45.6979 23.957 45.6995 25.2212 45.7137 26.4853C45.7169 26.7502 45.6519 26.9088 45.3537 26.8723C45.3346 26.8708 45.314 26.8723 45.295 26.8723C43.8722 26.9405 43.8865 26.9405 43.812 25.5289C43.555 20.7118 42.1259 16.3389 38.8046 12.7289C36.0479 9.73111 32.5743 8.08312 28.5725 7.49784C26.9451 7.25993 25.3098 7.17427 23.6698 7.35668C23.3827 7.3884 23.1749 7.26944 22.9656 7.11559C21.4159 5.97834 21.289 3.65308 22.7007 2.34136C23.0179 2.04634 23.3557 1.87186 23.8125 1.90359C24.4216 1.94641 25.0354 1.93055 25.6477 1.93848L25.6461 1.94007Z" fill="#7A6EA9"/>
<path d="M20.1138 6.06716C20.3073 6.49859 20.4691 6.94587 20.7625 7.32496C20.9338 7.54543 20.9766 7.67073 20.6182 7.74687C13.0571 9.34568 8.93321 14.3182 7.12344 21.5398C6.7285 23.1148 6.52706 24.7231 6.53023 26.3489C6.53023 26.7613 6.40651 26.8834 5.99412 26.8819C4.74267 26.8755 4.74108 26.893 4.74267 25.6605C4.74425 23.2687 4.72364 20.8752 4.76012 18.4833C4.78867 16.6133 5.17885 14.8051 5.92433 12.8859C6.29073 13.5806 6.59367 14.158 6.89821 14.7337C6.71105 15.3555 6.61747 15.9852 6.67298 16.7291C7.0029 16.3214 7.06158 15.8631 7.37563 15.5649C7.87368 14.9352 8.16552 14.1849 8.56998 13.5013C8.67784 13.3189 8.79363 13.1413 8.90466 12.962C8.94431 12.916 8.98238 12.8716 9.02203 12.8256L9.00617 12.8399C9.12196 12.7939 9.14258 12.7003 9.13623 12.5909L9.1283 12.6004C9.17271 12.5576 9.21554 12.5163 9.25995 12.4735H9.23298C9.42808 12.445 9.53911 12.2943 9.64062 12.1595C10.2941 11.295 11.1141 10.6019 11.9199 9.89131C12.0436 9.78186 12.253 9.73111 12.2228 9.49953L12.2197 9.51381C12.3434 9.51539 12.437 9.47257 12.4671 9.33933C13.1951 8.93487 13.9247 8.53358 14.6512 8.12595C14.8336 8.02285 15.0541 7.97051 15.1635 7.76273C16.7512 7.01091 18.396 6.42404 20.117 6.06558L20.1138 6.06716Z" fill="#7A6EA9"/>
<path d="M20.5485 9.66608C20.0584 10.1657 19.3764 10.3402 18.7895 10.6733C14.8369 12.9081 12.3277 16.2453 11.1 20.5849C11.0857 20.6325 11.1111 20.6912 11.1254 20.807C13.0573 19.4096 15.3286 19.2827 17.5254 18.8894C19.9331 18.458 21.9967 17.4111 23.5431 15.4634C23.6272 15.3571 23.6811 15.2175 23.8477 15.2112C23.762 15.8488 23.4559 16.4023 23.0832 16.894C22.7548 17.3271 22.7929 17.5903 23.2497 17.841C23.348 17.8949 23.4242 17.9916 23.5098 18.0694C23.1419 18.5182 22.7866 18.9798 22.2695 19.2748C21.5763 18.7165 21.5732 18.7117 20.796 19.2431C19.5889 20.0695 18.236 20.4485 16.7942 20.5627C15.1383 20.6928 13.484 20.8134 11.9771 21.6286C10.87 22.2282 9.91676 23.0165 9.03487 23.9047C8.89371 24.0475 8.76523 24.3393 8.51938 24.1981C8.29098 24.0665 8.52573 23.8444 8.55269 23.6668C8.90323 21.3669 9.5694 19.1717 10.6321 17.0939C12.675 13.1 15.9646 10.7415 20.2583 9.67876C20.3503 9.65656 20.4518 9.67083 20.5501 9.66766L20.5485 9.66608Z" fill="#B2ACCB"/>
<path d="M20.1137 6.06716C18.3912 6.42562 16.7464 7.0109 15.1603 7.76431C13.8771 7.07435 12.5939 6.38597 11.2473 5.6627C14.0405 3.4786 17.1334 2.25888 20.6927 1.9591C19.8647 3.29144 19.7632 4.65234 20.1137 6.06716Z" fill="#9E8CE0"/>
<path d="M26.1063 10.8319C29.4673 11.0825 32.5047 12.2499 35.2884 14.1088C37.168 15.365 38.8318 16.8623 40.207 18.6673C40.3243 18.8228 40.4496 18.9845 40.6638 19.0226C40.9604 19.7237 41.1412 20.4565 41.2443 21.2226C40.7367 20.6262 40.2561 20.0044 39.7184 19.435C36.1259 15.6236 31.7434 13.3221 26.5441 12.6131C26.2253 12.5703 26.0936 12.464 26.1079 12.1357C26.1285 11.7027 26.1079 11.2681 26.1047 10.8335L26.1063 10.8319Z" fill="#B2ACCB"/>
<path d="M5.21399 6.81422C6.01815 6.52396 6.30365 5.79117 6.66053 5.11866C6.8921 4.68565 7.13478 4.25898 7.41711 3.74825C7.82157 4.48738 8.20859 5.15831 8.55754 5.84669C8.75422 6.2337 9.02703 6.49541 9.41563 6.68892C10.085 7.02201 10.7305 7.40268 11.4871 7.81824C10.8923 8.14657 10.3689 8.46221 9.82009 8.72867C9.22371 9.01735 8.69553 9.36154 8.42271 9.99757C8.11342 9.59311 7.86757 9.149 7.66296 8.68743C7.45359 8.21477 7.12844 7.9023 6.6637 7.67549C6.15932 7.42964 5.64383 7.19013 5.2124 6.81581L5.21399 6.81422Z" fill="#F8F1BA"/>
<path d="M37.2375 47.1224C38.5334 46.526 38.6793 45.089 39.5089 44.0612C39.8895 44.7543 40.2829 45.4379 40.6414 46.139C40.819 46.4879 41.0585 46.7322 41.4075 46.9114C42.1022 47.2667 42.7779 47.6553 43.5519 48.0804C42.9301 48.4246 42.3988 48.7497 41.8421 49.021C41.2647 49.3017 40.7667 49.6475 40.4923 50.2502C40.1164 49.795 39.8769 49.2589 39.612 48.7402C39.4661 48.4547 39.2884 48.2168 38.9918 48.0645C38.4018 47.7616 37.8228 47.438 37.2375 47.124V47.1224Z" fill="#F8F1BA"/>
<path d="M37.2376 47.1224C37.8213 47.4364 38.4018 47.76 38.9919 48.063C39.2885 48.2152 39.4661 48.4531 39.612 48.7386C39.8769 49.2573 40.1148 49.7934 40.4923 50.2486C40.1672 50.872 39.842 51.4953 39.4899 52.1678C39.2409 51.7205 38.9903 51.3589 38.8301 50.9608C38.4066 49.8997 37.6865 49.1669 36.6238 48.7418C36.2304 48.5848 35.8735 48.3342 35.4009 48.0709C36.0718 47.7235 36.6555 47.4222 37.2376 47.1224Z" fill="#F3E467"/>
<path d="M5.21366 6.81422C5.64509 7.18855 6.16058 7.42805 6.66496 7.6739C7.1297 7.90072 7.45644 8.21318 7.66423 8.68585C7.86884 9.14741 8.11469 9.59152 8.42398 9.99599C8.10676 10.6051 7.79111 11.2125 7.42789 11.9104C7.00757 11.1443 6.61104 10.4575 6.2494 9.75331C6.07017 9.40436 5.82749 9.16486 5.47696 8.98563C4.77907 8.62875 4.1002 8.23698 3.33569 7.81507C4.01455 7.45343 4.61411 7.13462 5.21208 6.81581L5.21366 6.81422Z" fill="#F3E467"/>
<path d="M6.50816 35.1805C5.57235 34.2335 5.1092 33.201 4.8697 32.051C4.65875 31.0359 4.76343 30.0081 4.73805 28.9851C4.73805 28.9454 4.72377 28.8915 4.74281 28.8693C5.15044 28.4156 5.68338 28.7567 6.1497 28.6583C6.37969 28.6091 6.51292 28.7059 6.51133 28.9771C6.50499 30.9978 6.50816 33.0186 6.50816 35.1789V35.1805Z" fill="#E6AD7C"/>
<path d="M43.915 35.1789V29.97C43.915 28.5092 43.9499 28.4823 45.4155 28.6536C45.5979 28.6758 45.7153 28.7059 45.72 28.9169C45.7534 30.5807 45.8105 32.2461 44.9746 33.7767C44.7129 34.2573 44.3909 34.6919 43.915 35.1789Z" fill="#ECB280"/>
<path d="M12.2196 9.49953C12.2513 9.73111 12.0403 9.78186 11.9166 9.89131C11.1109 10.6019 10.2909 11.295 9.63737 12.1595C9.53586 12.2943 9.42483 12.445 9.22974 12.4735C9.61992 11.4774 9.99266 10.4766 11.1236 10.0499C11.5042 9.90558 11.8548 9.68511 12.2196 9.50112V9.49953Z" fill="#9E8CE0"/>
<path d="M7.37419 15.5664C7.06013 15.8662 7.00145 16.323 6.67153 16.7307C6.61761 15.9884 6.7096 15.3571 6.89677 14.7353C7.05538 15.0113 7.21557 15.2889 7.37419 15.5649V15.5664Z" fill="#9E8CE0"/>
<path d="M12.464 9.34092C12.4339 9.47257 12.3419 9.51698 12.2166 9.5154C12.299 9.45671 12.3815 9.39961 12.464 9.34092Z" fill="#9E8CE0"/>
<path d="M9.13298 12.5909C9.14091 12.7003 9.11871 12.7955 9.00292 12.8399C8.99817 12.7321 9.01402 12.6337 9.13298 12.5909Z" fill="#9E8CE0"/>
<path d="M21.0181 9.54712C20.9689 9.6058 20.9118 9.62325 20.842 9.58677C20.9007 9.57408 20.9594 9.5598 21.0181 9.54712Z" fill="#607289"/>
<path d="M9.25665 12.4751C9.21224 12.5179 9.16941 12.5592 9.125 12.602C9.13928 12.529 9.125 12.4259 9.25665 12.4751Z" fill="#9E8CE0"/>
<path d="M9.01899 12.8272C8.97933 12.8732 8.94126 12.9176 8.90161 12.9636C8.91113 12.8938 8.92699 12.8272 9.01899 12.8272Z" fill="#9E8CE0"/>
<path d="M25.9635 5.57863C25.3941 5.57705 24.8247 5.57546 24.2537 5.57387C24.2441 5.41685 24.2267 5.25982 24.2251 5.1028C24.2093 3.73873 24.2093 3.74825 25.5622 3.79107C25.8826 3.80059 26.0333 3.87989 26.0095 4.22408C25.9778 4.67454 25.9778 5.12659 25.9635 5.57705V5.57863Z" fill="#FDFDFD"/>
<path d="M18.7038 25.0768C19.8505 25.0768 20.9973 25.0895 22.1441 25.0689C22.4851 25.0626 22.5676 25.1704 22.5723 25.5003C22.5929 26.8628 22.6056 26.8628 21.2479 26.8628C19.527 26.8628 17.8076 26.8755 16.0867 26.8596C14.5085 26.8454 13.081 27.2625 11.8692 28.2951C11.6186 28.5092 11.4964 28.4315 11.3061 28.238C10.2466 27.1626 10.2402 27.142 11.5345 26.3204C12.7431 25.5527 14.0707 25.1355 15.5014 25.0943C16.5688 25.0642 17.6363 25.088 18.7038 25.088V25.0753V25.0768Z" fill="#030303"/>
<path d="M25.2021 47.2968C23.2384 47.2889 21.4239 46.7877 19.7839 45.6838C19.4508 45.4585 19.3683 45.2809 19.657 44.9541C19.9171 44.6607 20.0583 44.1643 20.366 44.0374C20.6943 43.9025 21.002 44.3847 21.3541 44.5386C24.179 45.7758 26.9515 45.7091 29.6464 44.1754C30.0001 43.9739 30.1857 43.9517 30.3585 44.3229C30.3839 44.3752 30.4252 44.4212 30.4585 44.4688C31.1421 45.4458 31.1453 45.4522 30.0794 46.0597C28.5694 46.9194 26.9357 47.3095 25.2021 47.2953V47.2968Z" fill="#030303"/>
<path d="M32.0399 25.0768C33.3881 25.1339 34.9774 24.9309 36.5382 25.3084C37.7484 25.6019 38.8254 26.1554 39.7818 26.9532C40.0039 27.1372 40.0927 27.2705 39.8389 27.5036C39.5201 27.797 39.2806 28.2761 38.9174 28.3934C38.5637 28.5076 38.2702 27.9953 37.9276 27.7891C36.9014 27.1721 35.7959 26.866 34.6047 26.8628C32.5681 26.8581 30.5315 26.8501 28.4949 26.8708C28.0921 26.8755 27.9572 26.7883 27.9636 26.3584C27.981 25.0753 27.9604 25.0737 29.2626 25.0737H32.0415L32.0399 25.0768Z" fill="#030303"/>
<path d="M17.1699 35.7467C15.1698 35.6404 13.5805 34.8204 12.5448 33.0344C12.3386 32.6775 12.291 32.4539 12.7637 32.3096C13.1205 32.2017 13.4552 31.9146 13.8026 31.9099C14.2102 31.9051 14.234 32.4349 14.4624 32.7061C16.0406 34.5777 19.1272 34.3128 20.2993 32.1605C20.5135 31.7687 20.7054 31.7179 21.0528 31.913C21.1717 31.9797 21.3081 32.0177 21.4366 32.0685C22.2519 32.392 22.263 32.4 21.8204 33.1344C20.772 34.8791 19.178 35.6658 17.1699 35.7451V35.7467Z" fill="#050403"/>
<path d="M33.1011 35.7467C31.0629 35.6357 29.4546 34.7855 28.4284 32.9408C28.2587 32.6363 28.2475 32.4412 28.6282 32.3508C28.6472 32.3461 28.6631 32.3334 28.6821 32.3254C29.0438 32.1716 29.4118 31.8877 29.7671 31.9019C30.1223 31.9178 30.1921 32.4428 30.4253 32.7188C31.9654 34.5381 34.9045 34.3462 36.1464 32.2953C36.4113 31.8559 36.6191 31.8147 36.995 32.0605C37.06 32.1034 37.1394 32.124 37.2107 32.1541C38.1497 32.5602 38.1561 32.5649 37.5565 33.4373C36.489 34.9933 34.9616 35.6706 33.0995 35.7451L33.1011 35.7467Z" fill="#050403"/>
<path d="M14.5767 16.1946C15.6076 16.212 15.4316 16.0597 15.4379 17.262C15.4427 18.174 15.5569 18.0345 14.4038 18.0345C13.5013 18.0345 13.671 18.1598 13.6615 16.9131C13.6551 16.0756 13.5885 16.2072 14.5767 16.1961V16.1946Z" fill="#FDFDFD"/>
<path d="M19.0019 17.1097C18.9845 18.1724 19.151 18.0265 18.0566 18.036C17.2191 18.044 17.2128 18.036 17.2207 16.9448C17.227 16.0661 17.1065 16.1993 18.2215 16.1961C19.1367 16.193 18.9876 16.1121 19.0019 17.1097Z" fill="#FDFDFD"/>
<path d="M45.6296 14.572C46.1833 14.572 46.6321 14.1231 46.6321 13.5695C46.6321 13.0159 46.1833 12.5671 45.6296 12.5671C45.076 12.5671 44.6272 13.0159 44.6272 13.5695C44.6272 14.1231 45.076 14.572 45.6296 14.572Z" fill="#080808"/>
</svg>
