<svg width="318" height="316" viewBox="0 0 318 316" fill="none" xmlns="http://www.w3.org/2000/svg">
<mask id="mask0_323_229" style="mask-type:alpha" maskUnits="userSpaceOnUse" x="52" y="94" width="222" height="222">
<circle cx="163" cy="205" r="111" fill="#D9D9D9"/>
</mask>
<g mask="url(#mask0_323_229)">
<circle cx="158.5" cy="197.5" r="142.5" fill="#CBE1DA"/>
<path d="M178.573 274.68C177.848 279.054 177.147 283.397 176.352 287.708C174.996 295.834 173.58 303.876 172.104 311.835C166.909 340.466 161.193 368.181 154.958 394.98V395.05C142.605 449.181 128.459 499.84 112.871 547.681H68.8438C86.5825 463.112 103.776 379.446 109.302 314.684C110.143 305.165 110.697 296.005 110.977 287.374L178.573 274.68Z" fill="#9E8CE0"/>
<path d="M213.856 546.724H167.795C164.553 494.431 160.625 443.328 154.99 395.066V394.996C151.685 366.643 147.819 339.231 143.159 313.174C141.662 304.769 140.072 296.498 138.389 288.362L176.352 287.708L195.245 287.389C196.5 295.11 197.676 302.854 198.721 310.637C209.437 386.793 212.469 466.358 213.856 546.724Z" fill="#9E8CE0"/>
<path opacity="0.3" d="M198.721 310.637L172.105 311.866L143.158 313.19L109.302 314.746C110.143 305.228 110.697 296.067 110.977 287.436L178.573 274.726C177.849 279.1 177.147 283.443 176.352 287.755L195.244 287.436C196.499 295.11 197.676 302.854 198.721 310.637Z" fill="#4A191B"/>
<path d="M166.368 182.67C143.026 185.184 123.962 183.238 105.405 172.07L87.3467 202.688L108.39 221.468L104.166 287.708C104.082 289.034 104.27 290.362 104.72 291.612C105.17 292.862 105.872 294.006 106.782 294.974C107.692 295.943 108.791 296.715 110.011 297.243C111.231 297.771 112.547 298.043 113.877 298.044H193.507C195.624 298.044 197.69 297.395 199.426 296.186C201.163 294.977 202.486 293.265 203.218 291.281C203.588 290.282 203.799 289.232 203.841 288.168L207.247 217.95L242.904 209.537L234.682 181.518C207.512 184.647 183.001 186.351 166.368 182.67Z" fill="#183727"/>
<path d="M105.405 172.046L87.3468 202.649L62.3364 180.335C61.7752 179.852 61.253 179.331 60.7308 178.778C55.8764 173.878 52.5004 167.712 50.9885 160.987C50.7859 160.115 50.5754 159.181 50.404 158.239C44.9015 133.886 34.4968 86.4574 35.0189 82.2935C35.7516 76.6586 41.5268 79.1258 41.5268 79.1258C41.9788 73.74 46.4681 76.6586 46.4681 76.6586C46.4681 73.6077 47.4813 72.8761 50.5365 73.0162C53.5917 73.1563 57.6367 91.5707 57.6367 91.5707C57.6367 91.5707 62.1259 82.0133 65.4305 82.7449C68.7351 83.4765 62.539 101.852 62.539 101.852L84.2838 155.118C90.5978 161.61 97.6921 167.296 105.405 172.046Z" fill="#B7795C"/>
<path opacity="0.2" d="M64.1444 170.303C64.1577 173.467 62.9327 176.511 60.7307 178.786C55.8763 173.886 52.5003 167.72 50.9883 160.994C50.7857 160.123 50.5753 159.189 50.4038 158.247C50.9206 158.179 51.4413 158.145 51.9626 158.146C53.5622 158.144 55.1466 158.457 56.625 159.067C58.1033 159.677 59.4467 160.572 60.5782 161.702C61.7097 162.831 62.6071 164.172 63.219 165.648C63.8309 167.124 64.1454 168.705 64.1444 170.303Z" fill="#FF5C33"/>
<path d="M53.7317 102.257C51.0116 99.3926 51.0584 96.4817 53.8798 93.6098L54.4409 94.1625C51.9313 96.7075 51.8845 99.1824 54.2928 101.727L53.7317 102.257Z" fill="#974245"/>
<path d="M279.652 189.869C279.301 190.461 278.919 191.013 278.568 191.605L276.23 195.076C273.06 199.828 268.282 203.282 262.77 204.804C262.476 204.911 262.174 204.991 261.866 205.046L242.904 209.529L234.689 181.51C242.272 180.607 250.066 179.635 257.969 178.592L281.452 134.291C281.452 134.291 281.452 115.457 284.063 114.904C286.674 114.351 288.739 125.886 288.739 125.886C288.739 125.886 298.871 110.561 302.067 110.561C305.262 110.561 304.405 114.904 304.405 114.904C304.405 114.904 307.359 111.254 309.136 112.989C310.04 113.9 309.915 117.2 309.915 117.2C309.915 117.2 311.084 116.102 313.383 117.068C317.81 118.92 303.626 151.476 279.652 189.869Z" fill="#B7795C"/>
<path opacity="0.2" d="M279.652 189.869C279.301 190.461 278.919 191.013 278.569 191.605L276.23 195.076C273.06 199.828 268.282 203.282 262.77 204.804C262.278 203.507 262.03 202.129 262.038 200.742C262.037 199.145 262.351 197.563 262.962 196.087C263.574 194.611 264.47 193.27 265.601 192.141C266.731 191.011 268.074 190.115 269.551 189.503C271.029 188.892 272.612 188.577 274.212 188.577C276.102 188.571 277.967 189.014 279.652 189.869Z" fill="#FF5C33"/>
<path d="M87.8182 202.214L86.8164 203.406L119.032 230.391L120.033 229.198L87.8182 202.214Z" fill="#0B1E14"/>
<path d="M206.834 245.642L205.275 245.556L207.614 200.68L209.172 200.757L206.834 245.642Z" fill="#0B1E14"/>
<path d="M166.415 211.716C163.752 211.658 161.128 211.07 158.697 209.986C156.265 208.902 154.074 207.344 152.253 205.404L153.376 204.322C157.421 208.501 162.915 210.626 168.114 210.058C170.287 209.812 172.372 209.06 174.201 207.862C176.03 206.665 177.552 205.055 178.643 203.162L179.976 203.941C178.761 206.037 177.07 207.82 175.04 209.146C173.009 210.472 170.696 211.304 168.285 211.576C167.665 211.658 167.04 211.704 166.415 211.716Z" fill="#0B1E14"/>
<path d="M166.743 199.131C165.265 199.297 163.768 199.172 162.339 198.76C160.909 198.349 159.575 197.66 158.413 196.733C157.25 195.807 156.282 194.66 155.564 193.359C154.845 192.059 154.391 190.629 154.226 189.153L151.233 162.458L173.734 159.944L176.734 186.639C177.067 189.619 176.202 192.608 174.328 194.95C172.454 197.293 169.726 198.796 166.743 199.131Z" fill="#B7795C"/>
<path d="M158.746 172.49C163.929 178.428 169.806 182.608 176.633 184.421L174.988 170.015L158.746 172.49Z" fill="#83492F"/>
<path d="M185.752 143.615C185.752 143.615 190.085 171.961 180.179 175.587C170.92 178.973 158.746 172.474 158.746 172.474L150.578 148.674L161.178 139.023L185.752 143.615Z" fill="#B7795C"/>
<path d="M154.857 157.453C155.426 152.005 157.561 147.335 163.087 144.261C179.212 150.783 189.305 145.818 196.546 135.365C196.546 135.365 187.31 137.342 181.738 133.762C176.165 130.182 161.863 119.753 152.822 134.852C140.165 140.712 142.846 150.9 147.967 157.422L154.857 157.453Z" fill="#1F1F1F"/>
<path d="M155.783 165.44C158.581 163.822 159.334 159.899 157.465 156.678C155.597 153.457 151.815 152.157 149.018 153.775C146.22 155.393 145.467 159.316 147.336 162.537C149.204 165.758 152.986 167.058 155.783 165.44Z" fill="#B7795C"/>
<path d="M153.345 162.481C153.166 159.983 152.106 158.278 150.11 157.266L150.812 155.881C153.298 157.134 154.709 159.321 154.904 162.364L153.345 162.481Z" fill="#974245"/>
</g>
<path d="M166.368 182.67C143.026 185.184 123.962 183.238 105.405 172.07L87.3467 202.688L108.39 221.468L104.166 287.708C104.082 289.034 104.27 290.362 104.72 291.612C105.17 292.862 105.872 294.006 106.782 294.974C107.692 295.943 108.791 296.715 110.011 297.243C111.231 297.771 112.547 298.043 113.877 298.044H193.507C195.624 298.044 197.69 297.395 199.426 296.186C201.163 294.977 202.486 293.265 203.218 291.281C203.588 290.282 203.799 289.232 203.841 288.168L207.247 217.95L242.904 209.537L234.682 181.518C207.512 184.647 183.001 186.351 166.368 182.67Z" fill="#183727"/>
<path d="M105.405 172.046L87.3468 202.649L62.3364 180.335C61.7752 179.852 61.253 179.331 60.7308 178.778C55.8764 173.878 52.5004 167.712 50.9885 160.987C50.7859 160.115 50.5754 159.181 50.404 158.239C44.9015 133.886 34.4968 86.4574 35.0189 82.2935C35.7516 76.6586 41.5268 79.1258 41.5268 79.1258C41.9788 73.74 46.4681 76.6586 46.4681 76.6586C46.4681 73.6077 47.4813 72.8761 50.5365 73.0162C53.5917 73.1563 57.6367 91.5707 57.6367 91.5707C57.6367 91.5707 62.1259 82.0133 65.4305 82.7449C68.7351 83.4765 62.539 101.852 62.539 101.852L84.2838 155.118C90.5978 161.61 97.6921 167.296 105.405 172.046Z" fill="#B7795C"/>
<path opacity="0.2" d="M64.1444 170.303C64.1577 173.467 62.9327 176.511 60.7307 178.786C55.8763 173.886 52.5003 167.72 50.9883 160.994C50.7857 160.123 50.5753 159.189 50.4038 158.247C50.9206 158.179 51.4413 158.145 51.9626 158.146C53.5622 158.144 55.1466 158.457 56.625 159.067C58.1033 159.677 59.4467 160.572 60.5782 161.702C61.7097 162.831 62.6071 164.172 63.219 165.648C63.8309 167.124 64.1454 168.705 64.1444 170.303Z" fill="#FF5C33"/>
<path d="M53.7317 102.257C51.0116 99.3926 51.0584 96.4817 53.8798 93.6098L54.4409 94.1625C51.9313 96.7075 51.8845 99.1824 54.2928 101.727L53.7317 102.257Z" fill="#974245"/>
<path d="M47.6837 84.4104L46.0859 76.752L46.8497 76.5964L48.4475 84.2548L47.6837 84.4104Z" fill="#974245"/>
<path d="M43.0545 85.6012L41.1528 79.2503L41.901 79.0324L43.8027 85.3755L43.0545 85.6012Z" fill="#974245"/>
<path d="M38.5541 81.2064L37.8013 81.408L39.3939 87.3392L40.1467 87.1376L38.5541 81.2064Z" fill="#974245"/>
<path d="M279.652 189.869C279.301 190.461 278.919 191.013 278.568 191.605L276.23 195.076C273.06 199.828 268.282 203.282 262.77 204.804C262.476 204.911 262.174 204.991 261.866 205.046L242.904 209.529L234.689 181.51C242.272 180.607 250.066 179.635 257.969 178.592L281.452 134.291C281.452 134.291 281.452 115.457 284.063 114.904C286.674 114.351 288.739 125.886 288.739 125.886C288.739 125.886 298.871 110.561 302.067 110.561C305.262 110.561 304.405 114.904 304.405 114.904C304.405 114.904 307.359 111.254 309.136 112.989C310.04 113.9 309.915 117.2 309.915 117.2C309.915 117.2 311.084 116.102 313.383 117.068C317.81 118.92 303.626 151.476 279.652 189.869Z" fill="#B7795C"/>
<path opacity="0.2" d="M279.652 189.869C279.301 190.461 278.919 191.013 278.569 191.605L276.23 195.076C273.06 199.828 268.282 203.282 262.77 204.804C262.278 203.507 262.03 202.129 262.038 200.742C262.037 199.145 262.351 197.563 262.962 196.087C263.574 194.611 264.47 193.27 265.601 192.141C266.731 191.011 268.074 190.115 269.551 189.503C271.029 188.892 272.612 188.577 274.212 188.577C276.102 188.571 277.967 189.014 279.652 189.869Z" fill="#FF5C33"/>
<path d="M290.758 136.649L290.337 135.972C293.377 134.213 294.032 131.832 292.348 128.68L293.042 128.314C294.951 131.855 294.18 134.665 290.758 136.649Z" fill="#974245"/>
<path d="M301.319 121.091L300.633 120.726L304.335 113.83L305.029 114.203L301.319 121.091Z" fill="#974245"/>
<path d="M306.58 123.177L305.886 122.819L309.378 116.141L310.072 116.499L306.58 123.177Z" fill="#974245"/>
<path d="M309.993 123.932L309.331 123.52L312.542 118.274L313.204 118.686L309.993 123.932Z" fill="#974245"/>
<path d="M87.8182 202.214L86.8164 203.406L119.032 230.391L120.033 229.198L87.8182 202.214Z" fill="#0B1E14"/>
<path d="M206.834 245.642L205.275 245.556L207.614 200.68L209.172 200.757L206.834 245.642Z" fill="#0B1E14"/>
<path d="M166.415 211.716C163.752 211.658 161.128 211.07 158.697 209.986C156.265 208.902 154.074 207.344 152.253 205.404L153.376 204.322C157.421 208.501 162.915 210.626 168.114 210.058C170.287 209.812 172.372 209.06 174.201 207.862C176.03 206.665 177.552 205.055 178.643 203.162L179.976 203.941C178.761 206.037 177.07 207.82 175.04 209.146C173.009 210.472 170.696 211.304 168.285 211.576C167.665 211.658 167.04 211.704 166.415 211.716Z" fill="#0B1E14"/>
<path d="M166.743 199.131C165.265 199.297 163.768 199.172 162.339 198.76C160.909 198.349 159.575 197.66 158.413 196.733C157.25 195.807 156.282 194.66 155.564 193.359C154.845 192.059 154.391 190.629 154.226 189.153L151.233 162.458L173.734 159.944L176.734 186.639C177.067 189.619 176.202 192.608 174.328 194.95C172.454 197.293 169.726 198.796 166.743 199.131Z" fill="#B7795C"/>
<path d="M158.746 172.49C163.929 178.428 169.806 182.608 176.633 184.421L174.988 170.015L158.746 172.49Z" fill="#83492F"/>
<path d="M185.752 143.615C185.752 143.615 190.085 171.961 180.179 175.587C170.92 178.973 158.746 172.474 158.746 172.474L150.578 148.674L161.178 139.023L185.752 143.615Z" fill="#B7795C"/>
<path d="M154.857 157.453C155.426 152.005 157.561 147.335 163.087 144.261C179.212 150.783 189.305 145.818 196.546 135.365C196.546 135.365 187.31 137.342 181.738 133.762C176.165 130.182 161.863 119.753 152.822 134.852C140.165 140.712 142.846 150.9 147.967 157.422L154.857 157.453Z" fill="#1F1F1F"/>
<path d="M155.783 165.44C158.581 163.822 159.334 159.899 157.465 156.678C155.597 153.457 151.815 152.157 149.018 153.775C146.22 155.393 145.467 159.316 147.336 162.537C149.204 165.758 152.986 167.058 155.783 165.44Z" fill="#B7795C"/>
<path d="M153.345 162.481C153.166 159.983 152.106 158.278 150.11 157.266L150.812 155.881C153.298 157.134 154.709 159.321 154.904 162.364L153.345 162.481Z" fill="#974245"/>
<path d="M310.09 149C306.738 144.538 305.241 139.956 304 133.939L306.862 132C307.844 138.936 307.665 142.172 312 144.858L310.09 149Z" fill="#007BFF"/>
<path d="M318 66C313.111 64.3519 309.767 61.4922 306 57.3057L307.594 54C311.55 59.1032 312.837 61.8589 317.79 61.4601L318 66Z" fill="#FFB900"/>
<path d="M223 78.3334C218.09 79.6522 214.006 78.8938 209 77.1126V73C214.554 75.5416 216.826 77.4168 220.925 74.1067L223 78.3334Z" fill="#14CCA1"/>
<path d="M129 66.9984C126.665 69.9197 124.043 71.482 120.514 73L119 71.082C123.119 69.6639 125.114 69.4721 126.251 66L129 66.9984Z" fill="#FF5C33"/>
<path d="M32 148.971C26.676 149.219 22.6875 147.858 18 145.469L18.9654 142C24.0284 145.125 25.9055 147.121 30.8755 145.04L32 148.971Z" fill="#007BFF"/>
<path d="M51.4543 54C47.2786 50.8669 45.0897 47.0244 43 41.7481L45.8432 39C47.7712 45.2284 47.9825 48.3368 53 49.4805L51.4543 54Z" fill="#14CCA1"/>
<path d="M79 94.2796C74.5902 97.6567 70.4374 98.6341 65.1029 99L64 94.955C70.0572 95.1051 72.763 95.9869 75.8558 91L79 94.2796Z" fill="#007BFF"/>
<path d="M176 3.55375C171.408 6.51326 167.202 7.10945 161.869 6.98475L161 2.8543C167.032 3.56154 169.68 4.69157 173.051 0L176 3.55375Z" fill="#FFB900"/>
<path d="M197.793 19C193.636 16.9564 190.946 13.9968 188 9.7941L189.694 7C192.727 12.0455 193.623 14.6799 198 14.8897L197.793 19Z" fill="#14CCA1"/>
<path d="M271.206 32C275.377 29.489 277.691 26.211 280 21.6449L277.449 19C275.241 24.4272 274.857 27.1842 270 27.8645L271.206 32Z" fill="#FF5C33"/>
<path d="M128.517 21C124.356 18.3583 121.769 14.8392 119 9.93105L120.927 7C123.729 12.8509 124.488 15.8436 129 16.4765L128.517 21Z" fill="#FF5C33"/>
<path d="M259 129.064C257.266 134.462 254.591 138.045 250.75 142L248 139.984C252.642 135.867 255.102 134.592 255.077 129L259 129.064Z" fill="#FF5C33"/>
<path d="M92 36C93.1046 36 94 35.1046 94 34C94 32.8954 93.1046 32 92 32C90.8954 32 90 32.8954 90 34C90 35.1046 90.8954 36 92 36Z" fill="#FF5C33"/>
<path d="M235.5 39C236.328 39 237 38.3284 237 37.5C237 36.6716 236.328 36 235.5 36C234.672 36 234 36.6716 234 37.5C234 38.3284 234.672 39 235.5 39Z" fill="#FFB900"/>
<path d="M293.5 91C294.328 91 295 90.3284 295 89.5C295 88.6716 294.328 88 293.5 88C292.672 88 292 88.6716 292 89.5C292 90.3284 292.672 91 293.5 91Z" fill="#FF5C33"/>
<path d="M106.5 111C107.328 111 108 110.328 108 109.5C108 108.672 107.328 108 106.5 108C105.672 108 105 108.672 105 109.5C105 110.328 105.672 111 106.5 111Z" fill="#14CCA1"/>
<path d="M3.66475 99.5864L0 103.248L3.66475 106.909L7.3295 103.248L3.66475 99.5864Z" fill="#FFB900"/>
<path d="M298.646 73.4085L294.981 77.0698L298.646 80.7311L302.311 77.0698L298.646 73.4085Z" fill="#14CCA1"/>
</svg>
