<svg width="27" height="60" viewBox="0 0 27 60" fill="none" xmlns="http://www.w3.org/2000/svg">
<path d="M23.1659 42.2115C24.0335 42.6375 24.2323 43.0494 23.9974 43.9921C22.7587 48.9628 21.5184 53.9319 20.2749 58.901C20.0713 59.7138 19.708 59.9988 18.8655 59.9988C15.038 60.0004 11.2106 60.0004 7.38312 59.9988C6.53745 59.9988 6.17256 59.7154 5.97054 58.9042C4.23065 51.9117 2.44534 44.9286 0.772791 37.9205C-0.0478235 34.4815 -0.350073 30.986 0.54258 27.489C1.32561 24.4258 2.86818 21.8074 5.17028 19.6431C5.45687 19.3737 5.50072 19.2547 5.18594 18.954C3.44918 17.294 2.57532 15.244 2.58159 12.8385C2.58472 11.6499 2.44064 10.4472 2.71627 9.27733C3.1485 7.44347 4.21969 6.0857 5.92826 5.27135C6.2493 5.11788 6.33856 4.94718 6.3323 4.61517C6.31194 3.60037 6.36049 2.58243 6.31351 1.56919C6.28062 0.850368 6.52023 0.338269 7.14665 0H7.84981C8.4731 0.339835 8.71897 0.851936 8.68139 1.57076C8.6344 2.4869 8.67825 3.40618 8.66573 4.32389C8.66259 4.57602 8.69705 4.68721 8.99773 4.71853C10.556 4.88453 11.8667 5.55168 12.8831 6.75598C13.0742 6.98149 13.1775 6.97836 13.3639 6.75598C14.3615 5.56264 15.6582 4.90176 17.1913 4.72636C17.5343 4.68721 17.5876 4.56663 17.5813 4.26438C17.5625 3.36702 17.6111 2.46654 17.5641 1.57076C17.5265 0.851936 17.7708 0.339834 18.3956 0.0015652H19.0988C19.7221 0.3414 19.9633 0.853502 19.9319 1.57076C19.885 2.60279 19.9319 3.63952 19.9132 4.67312C19.9085 4.96284 19.9899 5.10848 20.2624 5.24473C22.5175 6.36916 23.656 8.21084 23.6639 10.7275C23.667 11.9929 23.7704 13.2676 23.5135 14.5221C23.1267 16.4154 22.1871 17.9956 20.7181 19.2923C22.3907 20.8067 23.7108 22.5528 24.6599 24.573C25.9315 27.2839 26.3982 30.1357 26.1523 33.1096C26.0928 33.8316 25.6982 34.1651 24.8525 34.245C23.9755 33.9365 23.786 33.592 23.8377 32.5396C24.0648 27.8852 22.469 23.9904 18.9704 20.8865C18.7167 20.661 18.5131 20.6172 18.1983 20.7518C17.5688 21.0212 16.9032 21.1715 16.2188 21.2295C14.446 21.3798 12.6686 21.2827 10.8942 21.2921C9.91387 21.2968 8.94605 21.1371 8.04087 20.7471C7.71356 20.6062 7.51624 20.6798 7.2688 20.8928C5.16089 22.7141 3.70915 24.9583 2.93082 27.6284C2.00371 30.8153 2.26681 34.0273 3.01382 37.1782C4.60337 43.8857 6.31664 50.5633 7.961 57.2582C8.05966 57.6607 8.27578 57.6591 8.58429 57.6591C11.6099 57.6544 14.6355 57.6466 17.6596 57.667C18.0809 57.6701 18.2077 57.5339 18.3032 57.1423C19.4198 52.5851 20.5599 48.0326 21.6938 43.4785C21.9334 42.5185 22.2247 42.2679 23.1643 42.2115H23.1659ZM12.9332 18.9556C13.8071 18.9556 14.5103 18.9665 15.2134 18.954C18.1435 18.8976 20.5349 17.0356 21.1597 14.2621C21.4761 12.8605 21.4213 11.4166 21.2584 10.0087C21.0642 8.3236 19.625 7.10834 17.9869 7.03943C16.0231 6.95486 14.4179 8.42069 14.2973 10.408C14.2409 11.3304 13.5831 11.8989 12.8205 11.6812C12.2692 11.5246 11.9905 11.1112 11.9451 10.383C11.8245 8.45358 10.2615 6.99871 8.34782 7.0363C6.45445 7.07388 4.9479 8.61645 4.92285 10.5552C4.91188 11.3946 4.90719 12.234 4.92754 13.0735C4.99332 15.7686 6.88355 18.1083 9.4926 18.7598C10.6859 19.0574 11.8996 18.918 12.9332 18.9571V18.9556Z" fill="#020303"/>
<path d="M23.166 42.2115C22.2263 42.2679 21.9351 42.5201 21.6955 43.4785C20.5616 48.0326 19.4215 52.5851 18.3049 57.1423C18.2094 57.5339 18.0826 57.6701 17.6613 57.667C14.6357 57.645 11.61 57.6529 8.58598 57.6591C8.27746 57.6591 8.06135 57.6591 7.96269 57.2582C6.31832 50.5633 4.60349 43.8857 3.01551 37.1782C2.2685 34.0273 2.0054 30.8153 2.93251 27.6284C3.70927 24.9567 5.16257 22.7125 7.27049 20.8928C7.51636 20.6798 7.71368 20.6062 8.04255 20.7471C8.94774 21.1371 9.91556 21.2984 10.8959 21.2921C12.6703 21.2827 14.4477 21.3798 16.2205 21.2295C16.9049 21.1715 17.572 21.0196 18.2 20.7518C18.5148 20.6172 18.7199 20.6626 18.9721 20.8865C22.4706 23.9905 24.0649 27.8852 23.8394 32.5396C23.7877 33.592 23.9772 33.9365 24.8542 34.245C24.8855 35.2254 24.5833 36.1619 24.4893 37.1266C23.6843 37.1234 23.2255 37.3975 23.0814 37.9707C22.9217 38.6065 23.1957 39.0857 23.9177 39.4287C23.6499 40.3511 23.5324 41.3158 23.166 42.2115Z" fill="#9E8CE0"/>
<path d="M23.9159 39.4302C23.194 39.0872 22.9199 38.608 23.0797 37.9722C23.2237 37.4006 23.6826 37.125 24.4876 37.1281C25.2314 37.4961 25.4914 37.9519 25.3223 38.5908C25.1641 39.1875 24.6896 39.4725 23.9175 39.4302H23.9159Z" fill="#050606"/>
<path d="M12.9331 18.9556C11.8995 18.9164 10.6858 19.0574 9.49249 18.7583C6.88343 18.1068 4.9932 15.7655 4.92742 13.0719C4.90707 12.2325 4.91176 11.3931 4.92273 10.5537C4.94778 8.61489 6.45433 7.07232 8.3477 7.03474C10.2614 6.99715 11.8259 8.45202 11.9449 10.3814C11.9903 11.1096 12.2691 11.5231 12.8204 11.6797C13.583 11.8958 14.2408 11.3289 14.2972 10.4065C14.4177 8.41913 16.0229 6.95487 17.9868 7.03787C19.6249 7.10834 21.0625 8.32204 21.2583 10.0071C21.4212 11.415 21.4744 12.8605 21.1596 14.2605C20.5348 17.034 18.1434 18.8961 15.2133 18.9524C14.5117 18.9665 13.8085 18.954 12.9331 18.954V18.9556Z" fill="#9E8CE0"/>
</svg>
