<svg width="56" height="60" viewBox="0 0 56 60" fill="none" xmlns="http://www.w3.org/2000/svg">
<g clip-path="url(#clip0_66_97)">
<path d="M32.0713 0C32.5392 0.310102 32.6507 0.754111 32.6495 1.29914C32.6366 8.38802 32.6471 15.4781 32.6284 22.567C32.6272 23.0861 32.7515 23.2142 33.2652 23.2013C34.8416 23.1637 36.419 23.1872 38.0517 23.1872C37.6763 22.0771 37.294 20.9871 37.3092 19.8618C37.3257 18.6437 36.7709 17.7099 36.181 16.7478C35.4995 15.6343 34.838 14.5102 34.1801 13.3825C33.6628 12.4969 34.0464 11.8496 35.0808 11.8449C36.134 11.8391 37.1873 11.8297 38.2393 11.852C38.5724 11.859 38.7472 11.7475 38.9196 11.4597C39.9188 9.78583 41.2207 8.45145 43.1817 7.96045C45.1568 7.46711 46.8727 8.03798 48.3716 9.35356C49.0671 9.9632 49.6406 10.6797 50.0816 11.4902C50.2376 11.7756 50.4159 11.8755 50.7244 11.8461C52.5657 11.6699 54.4235 12.8587 54.6898 15.1985C54.8035 16.1981 55.2223 17.1601 55.0323 18.1985C54.7519 19.7314 53.5439 20.8649 52.0028 20.9871C51.6662 21.0141 51.4855 21.0846 51.4222 21.4569C51.3436 21.9139 51.1935 22.3626 51.0399 22.8031C50.9261 23.1296 51.0246 23.213 51.3425 23.1883C53.09 23.0556 53.0372 23.5901 53.0361 24.9714C53.0255 36.1809 53.0302 47.3915 53.0302 58.601C53.0302 59.7909 52.8261 59.9965 51.6451 59.9977C50.4945 59.9977 49.3439 60 48.1933 59.9977C47.4286 59.9953 47.1976 59.8062 47.031 59.0615C47.1612 58.4436 47.5459 58.1993 48.1675 58.2193C48.9862 58.2451 49.8072 58.1981 50.6235 58.2357C51.1055 58.258 51.2768 58.1699 51.2744 57.619C51.2521 49.1817 51.2545 40.7455 51.2709 32.3081C51.2709 31.8218 51.1595 31.7044 50.6704 31.7056C41.7778 31.722 32.8852 31.722 23.9926 31.7067C23.5024 31.7067 23.3405 31.7901 23.3417 32.3316C23.3617 40.749 23.3628 49.1664 23.3417 57.5838C23.3405 58.15 23.5235 58.2369 24.0278 58.2357C30.7166 58.2204 37.4054 58.231 44.0954 58.2169C44.7358 58.2157 45.1439 58.4272 45.2987 59.0615C45.0947 59.825 44.8847 59.9977 44.127 59.9977C29.7995 59.9977 15.4707 59.9977 1.14309 59.9977C0.317398 59.9977 0.00776475 59.6934 0.00776475 58.8759C0.0065919 44.0979 0.0065919 29.3187 0.00776475 14.5407C0.00776475 13.7854 0.170792 13.5881 0.944876 13.3649C1.60519 13.5352 1.7905 13.9757 1.78933 14.6323C1.77174 20.3927 1.78933 26.1543 1.7647 31.9146C1.76236 32.4691 1.92538 32.5748 2.44144 32.5724C8.60362 32.5548 14.7658 32.5548 20.928 32.5724C21.4194 32.5736 21.5871 32.4902 21.5789 31.9475C21.5437 29.4679 21.5637 26.9871 21.5637 24.5074C21.5637 23.4303 21.8018 23.1872 22.8538 23.1872C25.3109 23.1872 27.7681 23.1707 30.2252 23.2001C30.7377 23.206 30.8703 23.0826 30.8691 22.5611C30.8492 15.8434 30.8503 9.12569 30.8679 2.40799C30.8691 1.90642 30.7682 1.75724 30.2358 1.75842C20.9538 1.77721 11.6718 1.77839 2.38983 1.75842C1.84094 1.75724 1.7647 1.92874 1.76822 2.41386C1.7905 5.10846 1.77057 7.80423 1.78464 10.4988C1.78816 11.1179 1.56532 11.5102 0.940185 11.6312C0.227089 11.4843 0.0112833 11.2388 0.0101105 10.5294C0.0065919 7.38959 0.0183204 4.24863 -0.000445232 1.10767C-0.0039638 0.597886 0.208323 0.267815 0.594192 0H32.0713ZM42.3772 10.3215H42.3795C41.7039 10.6269 41.284 11.1848 40.8149 11.8273H48.1851C47.6808 11.1331 47.1753 10.6092 46.549 10.2075C45.226 9.35826 43.7259 9.35944 42.5073 10.2075C42.4334 10.2099 42.3842 10.2416 42.376 10.3215H42.3772ZM41.4518 23.1648C43.8491 23.1719 46.2452 23.1754 48.6425 23.193C48.897 23.1954 49.0331 23.1143 49.1222 22.8794C50.2576 19.924 50.3186 16.9511 49.2911 13.9534C49.209 13.7126 49.0894 13.6163 48.8302 13.6175C46.3367 13.6363 43.842 13.6433 41.3486 13.6539C41.0776 13.641 40.8032 13.6527 40.5369 13.6092C39.9716 13.5176 39.7206 13.7631 39.5576 14.2999C38.7941 16.8078 38.7249 19.3285 39.5013 21.8246C40.0256 23.5078 39.6913 23.1825 41.4506 23.1637L41.4518 23.1648ZM21.5648 46.2569C21.5648 42.4487 21.5578 38.6417 21.5754 34.8336C21.5777 34.4178 21.4651 34.325 21.0617 34.325C14.8022 34.3379 8.5438 34.3379 2.28428 34.325C1.87495 34.325 1.77057 34.4284 1.77057 34.8395C1.78347 42.4546 1.78464 50.0709 1.77057 57.686C1.77057 58.1253 1.87964 58.2357 2.31829 58.2345C8.55788 58.2193 14.7975 58.2193 21.0371 58.2345C21.4909 58.2357 21.5777 58.1053 21.5754 57.6789C21.559 53.8708 21.566 50.0638 21.566 46.2557L21.5648 46.2569ZM32.4818 29.919C35.3259 29.919 38.1713 29.9107 41.0155 29.9284C41.4189 29.9307 41.5456 29.8273 41.5374 29.4127C41.5104 28.0865 41.5116 26.7592 41.5374 25.4319C41.5444 25.0407 41.4271 24.9515 41.0495 24.9526C35.3013 24.9644 29.5532 24.9644 23.8062 24.9526C23.4567 24.9526 23.3417 25.0255 23.3488 25.3966C23.3734 26.7228 23.3757 28.0501 23.3488 29.3775C23.3394 29.8085 23.4438 29.9342 23.8906 29.9307C26.7547 29.9084 29.6188 29.919 32.4829 29.919H32.4818ZM47.2492 29.919C48.4584 29.919 49.6676 29.9084 50.8757 29.926C51.1841 29.9307 51.2686 29.8403 51.265 29.5337C51.2498 28.1476 51.2475 26.7604 51.265 25.3743C51.2697 25.0466 51.1829 24.9503 50.8487 24.9526C48.4701 24.9667 46.0904 24.9667 43.7119 24.9526C43.3835 24.9503 43.2873 25.0372 43.292 25.3708C43.3107 26.7381 43.3119 28.1053 43.292 29.4714C43.2861 29.8262 43.3694 29.9366 43.7388 29.9284C44.9082 29.9025 46.0787 29.919 47.248 29.919H47.2492ZM51.7729 17.8203C51.7729 18.1703 51.7987 18.5227 51.7659 18.8704C51.7307 19.2298 51.8644 19.2627 52.1611 19.1699C52.8648 18.9515 53.395 18.2678 53.2953 17.529C53.1709 16.6069 52.995 15.686 52.7628 14.785C52.608 14.1848 52.1423 13.8277 51.5242 13.675C51.1571 13.5834 51.0657 13.6633 51.1841 14.0333C51.577 15.2643 51.753 16.5317 51.7729 17.8203ZM37.4347 15.3876C37.6095 14.7275 37.7502 14.1919 37.8945 13.648H36.4108C36.7545 14.233 37.0653 14.7604 37.4347 15.3876Z" fill="#030303"/>
<path d="M0.941895 11.6312C1.56703 11.5102 1.78987 11.1179 1.78635 10.4988C1.77228 7.80423 1.79221 5.10846 1.76993 2.41386C1.76641 1.92874 1.84265 1.75607 2.39154 1.75842C11.6735 1.77956 20.9555 1.77838 30.2375 1.75842C30.7711 1.75842 30.8708 1.90524 30.8696 2.40799C30.852 9.12568 30.852 15.8434 30.8708 22.5611C30.872 23.0826 30.7395 23.2059 30.2269 23.2001C27.7698 23.1707 25.3127 23.1872 22.8555 23.1872C21.8035 23.1872 21.5654 23.4303 21.5654 24.5074C21.5654 26.9871 21.5454 29.4679 21.5806 31.9475C21.5877 32.4902 21.4211 32.5736 20.9297 32.5724C14.7675 32.556 8.60533 32.5548 2.44315 32.5724C1.92709 32.5736 1.76407 32.4679 1.76641 31.9146C1.78987 26.1543 1.77345 20.3927 1.79104 14.6323C1.79339 13.9769 1.6069 13.5352 0.946586 13.3649L0.941895 11.6312ZM3.49755 24.0282C3.49755 25.4518 3.49285 26.8755 3.50106 28.2991C3.50224 28.5893 3.50927 28.8888 3.57965 29.1684C3.90687 30.4757 5.17356 31.3743 6.45666 31.2334C7.93563 31.0713 8.96774 29.9671 8.98064 28.4354C9.00527 25.5493 9.00175 22.6621 8.98299 19.776C8.97243 18.1257 7.76087 16.9017 6.21505 16.9146C4.65867 16.9276 3.50927 18.1492 3.49989 19.8136C3.49168 21.2173 3.49872 22.6222 3.49872 24.027L3.49755 24.0282ZM18.116 11.6206C18.8608 11.1883 19.5316 10.8042 20.1967 10.4096C20.7901 10.0572 20.9731 9.58496 20.7162 9.11159C20.4441 8.60885 19.9257 8.51723 19.3018 8.86961C18.6321 9.24902 17.9659 9.63547 17.2117 10.0689C17.2117 9.2314 17.2117 8.49843 17.2117 7.76429C17.2106 6.97142 16.9197 6.57087 16.3415 6.55795C15.7386 6.54503 15.4431 6.94675 15.4419 7.78543C15.4407 8.39037 15.429 8.99647 15.4466 9.60141C15.4571 9.96202 15.3915 10.0689 15.0396 9.85278C14.4098 9.46632 13.7694 9.09397 13.115 8.75098C12.6669 8.51605 12.1919 8.6758 11.9491 9.0834C11.7064 9.48982 11.8107 9.97024 12.2236 10.2674C12.396 10.3919 12.593 10.4836 12.7772 10.5916C13.3425 10.9229 13.9066 11.2541 14.5341 11.6229C13.7202 12.0951 12.9754 12.5086 12.2517 12.955C11.8119 13.2263 11.704 13.7067 11.9339 14.1237C12.1649 14.5431 12.6259 14.7075 13.088 14.5031C13.3718 14.3774 13.6322 14.2013 13.9031 14.0485C14.3969 13.7702 14.8907 13.4906 15.4407 13.1793C15.4407 14.0603 15.4372 14.8215 15.4407 15.5826C15.4454 16.2874 15.7422 16.6609 16.2969 16.6738C16.8728 16.6879 17.2059 16.2909 17.2106 15.572C17.2153 14.8015 17.2106 14.0298 17.2106 13.1652C17.9835 13.6116 18.6649 14.0133 19.3557 14.3998C19.9292 14.7204 20.4547 14.6018 20.7162 14.1155C20.9661 13.6527 20.7983 13.1922 20.2354 12.854C19.568 12.4534 18.8901 12.0693 18.1148 11.6194L18.116 11.6206Z" fill="#E4E4E4"/>
<path d="M45.3003 59.0615C45.1455 58.4272 44.7373 58.2157 44.097 58.2169C37.4082 58.231 30.7194 58.2204 24.0294 58.2357C23.5251 58.2369 23.3409 58.15 23.3433 57.5838C23.3644 49.1664 23.3632 40.749 23.3433 32.3316C23.3421 31.7901 23.504 31.7056 23.9942 31.7067C32.8868 31.722 41.7794 31.722 50.672 31.7056C51.1599 31.7056 51.2725 31.8219 51.2725 32.3081C51.2561 40.7455 51.2537 49.1817 51.276 57.619C51.2772 58.1699 51.1059 58.258 50.6251 58.2357C49.8076 58.1981 48.9866 58.2451 48.1691 58.2193C47.5463 58.1993 47.1628 58.4448 47.0326 59.0615C46.4556 59.0615 45.8785 59.0615 45.3015 59.0615H45.3003ZM37.3155 56.5501C43.9445 56.5372 49.3068 51.141 49.288 44.4996C49.2692 37.8782 43.9187 32.5407 37.2979 32.5372C30.683 32.5349 25.2773 37.9616 25.3066 44.5748C25.336 51.175 30.7381 56.5619 37.3155 56.5489V56.5501Z" fill="#F0F0F0"/>
<path d="M21.5652 46.258C21.5652 50.0662 21.5582 53.8731 21.5746 57.6813C21.577 58.1077 21.489 58.2381 21.0363 58.2369C14.7967 58.2204 8.55709 58.2204 2.3175 58.2369C1.87885 58.2369 1.76978 58.1276 1.76978 57.6883C1.78385 50.0732 1.78385 42.4569 1.76978 34.8418C1.76978 34.4307 1.87299 34.3273 2.28349 34.3273C8.54301 34.3414 14.8014 34.3403 21.0609 34.3273C21.4644 34.3273 21.577 34.4201 21.5746 34.8359C21.557 38.6441 21.564 42.4511 21.564 46.2592L21.5652 46.258ZM3.50208 40.0689C3.50208 40.8101 3.48332 41.5513 3.5056 42.2913C3.549 43.715 4.63858 44.825 6.05656 44.919C7.47337 45.0129 8.75882 44.0591 8.90894 42.6402C9.08839 40.9558 9.08839 39.249 8.90894 37.5634C8.75647 36.1304 7.44757 35.1719 6.00144 35.2753C4.64444 35.3716 3.549 36.5133 3.5056 37.9041C3.48332 38.6253 3.50208 39.3465 3.50091 40.0677L3.50208 40.0689Z" fill="#E4E4E4"/>
<path d="M32.4822 29.9201C29.6181 29.9201 26.7539 29.9096 23.8898 29.9319C23.443 29.9354 23.3386 29.8085 23.348 29.3786C23.3761 28.0525 23.3726 26.7251 23.348 25.3978C23.3409 25.0266 23.4559 24.9526 23.8054 24.9538C29.5536 24.9644 35.3017 24.9655 41.0487 24.9538C41.4252 24.9538 41.5436 25.0431 41.5366 25.433C41.512 26.7592 41.5108 28.0865 41.5366 29.4139C41.5448 29.8285 41.4182 29.933 41.0147 29.9295C38.1705 29.9131 35.3252 29.9201 32.481 29.9201H32.4822Z" fill="#F1F1F1"/>
<path d="M41.3501 13.655C43.8436 13.6445 46.3383 13.6363 48.8318 13.6186C49.091 13.6163 49.2094 13.7138 49.2927 13.9546C50.3201 16.9522 50.2603 19.9252 49.1238 22.8806C49.0335 23.1143 48.8986 23.1954 48.6441 23.1942C46.2468 23.1766 43.8506 23.1742 41.4533 23.166C41.1449 21.6566 40.9642 20.1378 40.9478 18.5932C40.9302 16.9323 41.0639 15.289 41.3501 13.6562V13.655Z" fill="#F99DA0"/>
<path d="M47.2508 29.9201C46.0802 29.9201 44.9109 29.9037 43.7416 29.9295C43.3721 29.9378 43.2889 29.8273 43.2947 29.4726C43.3158 28.1065 43.3147 26.7381 43.2947 25.372C43.29 25.0384 43.3862 24.9526 43.7146 24.9538C46.0931 24.9679 48.4729 24.9679 50.8514 24.9538C51.1857 24.9515 51.2713 25.0478 51.2678 25.3755C51.2502 26.7616 51.2514 28.1488 51.2678 29.5349C51.2713 29.8414 51.1857 29.9319 50.8784 29.9272C49.6692 29.9107 48.46 29.9201 47.2519 29.9201H47.2508Z" fill="#F1F1F1"/>
<path d="M41.3501 13.6551C41.0639 15.2878 40.9302 16.9311 40.9478 18.592C40.9643 20.1367 41.1449 21.6566 41.4533 23.1648C39.6941 23.1836 40.0283 23.509 39.5041 21.8258C38.7265 19.3297 38.7956 16.8089 39.5603 14.3011C39.7234 13.7643 39.9744 13.5188 40.5397 13.6104C40.8059 13.6539 41.0804 13.6421 41.3513 13.6551H41.3501Z" fill="#C05B5F"/>
<path d="M42.5078 10.2075C43.7264 9.35943 45.2265 9.35826 46.5494 10.2075C47.1758 10.6092 47.6812 11.1331 48.1856 11.8273C46.0228 11.8273 43.9598 11.8273 41.8967 11.8273C41.9272 11.2835 42.3471 10.8641 42.3799 10.3203H42.3776C42.4597 10.3273 42.4878 10.2709 42.509 10.2063L42.5078 10.2075Z" fill="#F99DA0"/>
<path d="M42.38 10.3215C42.3483 10.8653 41.9272 11.2835 41.8968 11.8285C41.5719 11.8285 41.2458 11.8285 40.8142 11.8285C41.2834 11.186 41.7044 10.628 42.3788 10.3215H42.38Z" fill="#C05B5F"/>
<path d="M42.5078 10.2075C42.4879 10.2721 42.4586 10.3285 42.3765 10.3215C42.3835 10.2416 42.4328 10.2099 42.5078 10.2075Z" fill="#BB1B35"/>
<path d="M3.49741 24.0282C3.49741 22.6233 3.49154 21.2196 3.49858 19.8148C3.50796 18.1492 4.65736 16.9287 6.21374 16.9158C7.75956 16.9029 8.97112 18.1269 8.98168 19.7772C9.00044 22.6633 9.00396 25.5505 8.97933 28.4366C8.96643 29.9683 7.93432 31.0724 6.45535 31.2345C5.17225 31.3755 3.90556 30.4769 3.57833 29.1695C3.50796 28.89 3.50093 28.5904 3.49975 28.3003C3.49272 26.8767 3.49624 25.453 3.49624 24.0294L3.49741 24.0282ZM7.1661 24.0822C7.1661 22.6597 7.16962 21.2373 7.16493 19.8148C7.16258 19.1077 6.82714 18.7306 6.23133 18.7377C5.62849 18.7435 5.28015 19.1241 5.27897 19.8148C5.27428 22.6597 5.27428 25.5047 5.27897 28.3496C5.28015 29.0403 5.62966 29.4209 6.23133 29.4268C6.82832 29.4326 7.16258 29.0568 7.16493 28.3496C7.17079 26.9272 7.1661 25.5047 7.1661 24.0822Z" fill="#040404"/>
<path d="M18.1159 11.6206C18.8912 12.0705 19.5691 12.4546 20.2364 12.8551C20.8006 13.1934 20.9671 13.6539 20.7173 14.1167C20.4557 14.603 19.9303 14.7216 19.3568 14.4009C18.666 14.0157 17.9845 13.6128 17.2116 13.1664C17.2116 14.0309 17.2151 14.8015 17.2116 15.5732C17.2081 16.2909 16.875 16.6879 16.298 16.675C15.7432 16.6621 15.4465 16.2886 15.4418 15.5838C15.4371 14.8226 15.4418 14.0615 15.4418 13.1805C14.8905 13.4918 14.3968 13.7702 13.9042 14.0497C13.6332 14.2024 13.3717 14.3786 13.089 14.5043C12.6269 14.7099 12.166 14.5442 11.9349 14.1249C11.7051 13.7079 11.813 13.2275 12.2528 12.9562C12.9764 12.5086 13.7212 12.0963 14.5352 11.6241C13.9065 11.2553 13.3424 10.924 12.7782 10.5928C12.5941 10.4847 12.3971 10.3931 12.2246 10.2686C11.8118 9.97142 11.7074 9.491 11.9502 9.08458C12.193 8.67815 12.668 8.51723 13.116 8.75216C13.7705 9.09515 14.4108 9.4675 15.0407 9.85396C15.3925 10.0701 15.4594 9.9632 15.4477 9.60259C15.4301 8.99765 15.4418 8.39155 15.443 7.78661C15.4453 6.94675 15.7397 6.5462 16.3425 6.55913C16.9219 6.57205 17.2116 6.97142 17.2128 7.76547C17.214 8.49961 17.2128 9.23375 17.2128 10.0701C17.9669 9.63665 18.6331 9.2502 19.3028 8.87079C19.9268 8.51723 20.4452 8.61003 20.7173 9.11277C20.9741 9.58732 20.7912 10.0583 20.1977 10.4107C19.5327 10.8054 18.8618 11.1895 18.1171 11.6218L18.1159 11.6206Z" fill="#030303"/>
<path d="M37.3156 56.5501C30.7383 56.563 25.3373 51.1762 25.3068 44.576C25.2774 37.9628 30.6831 32.536 37.298 32.5384C43.9188 32.5407 49.2694 37.8794 49.2881 44.5008C49.3069 51.141 43.9446 56.5384 37.3156 56.5513V56.5501ZM27.0989 44.5243C27.0918 50.1707 31.6707 54.7588 37.3086 54.7529C42.9348 54.7482 47.5042 50.1942 47.5171 44.5783C47.53 38.9213 42.9793 34.3356 37.3356 34.3203C31.6918 34.305 27.1071 38.8755 27.0989 44.5231V44.5243Z" fill="#040404"/>
<path d="M3.50222 40.0689C3.50222 39.3477 3.48346 38.6253 3.50692 37.9052C3.55031 36.5145 4.64576 35.3739 6.00275 35.2764C7.44888 35.1731 8.75779 36.1316 8.91026 37.5646C9.08971 39.249 9.08853 40.9558 8.91026 42.6413C8.76013 44.0603 7.47468 45.0141 6.05788 44.9201C4.64107 44.8262 3.55031 43.715 3.50692 42.2925C3.48463 41.5525 3.5034 40.8113 3.5034 40.0701L3.50222 40.0689ZM7.16622 40.0807C7.16622 39.4182 7.17443 38.7557 7.16388 38.0944C7.15449 37.4706 6.7698 37.0501 6.22794 37.0454C5.72948 37.0407 5.28496 37.5153 5.2791 38.1038C5.26854 39.4475 5.26737 40.7925 5.2791 42.1363C5.28496 42.74 5.65207 43.1159 6.19744 43.13C6.77097 43.1441 7.14863 42.7647 7.16153 42.1269C7.17561 41.4456 7.16505 40.7631 7.16505 40.0818L7.16622 40.0807Z" fill="#030404"/>
<path d="M7.16603 24.0822C7.16603 25.5047 7.16955 26.9272 7.16486 28.3496C7.16251 29.0568 6.82708 29.4327 6.23127 29.4268C5.62959 29.4197 5.28008 29.0392 5.27891 28.3496C5.27422 25.5047 5.27422 22.6597 5.27891 19.8148C5.28008 19.1241 5.62959 18.7447 6.23127 18.7377C6.82708 18.7318 7.16251 19.1077 7.16486 19.8148C7.17072 21.2373 7.16603 22.6597 7.16603 24.0822Z" fill="#4D505F"/>
<path d="M27.0989 44.5243C27.1059 38.8755 31.6918 34.3062 37.3356 34.3214C42.9793 34.3367 47.5312 38.9225 47.5171 44.5795C47.5042 50.1954 42.9359 54.7482 37.3086 54.7541C31.6707 54.7588 27.0907 50.1719 27.0989 44.5254V44.5243ZM29.2417 43.9076C29.2417 47.7322 31.0713 50.6394 34.007 51.9021C37.1174 53.24 40.0155 52.7666 42.6298 50.6171C43.3136 50.0544 43.3218 49.594 42.7201 48.9444C40.3111 46.3426 40.3088 42.7071 42.7155 40.1359C43.3206 39.4886 43.3148 39.0223 42.6357 38.462C40.0026 36.2936 37.0635 35.7862 33.966 37.2005C30.8896 38.6053 29.3719 41.1543 29.2429 43.9076H29.2417Z" fill="#FBFBFB"/>
<path d="M7.16497 40.0818C7.16497 40.7631 7.17552 41.4456 7.16145 42.1269C7.14855 42.7647 6.77089 43.1441 6.19736 43.13C5.65316 43.1171 5.28488 42.74 5.27902 42.1363C5.26612 40.7925 5.26729 39.4487 5.27902 38.1038C5.28371 37.5153 5.72822 37.0407 6.22786 37.0454C6.76972 37.0501 7.15441 37.4706 7.1638 38.0944C7.17435 38.7568 7.16614 39.4193 7.16614 40.0807L7.16497 40.0818Z" fill="#4D505F"/>
<path d="M29.2417 43.9088C29.3707 41.1554 30.8883 38.6065 33.9647 37.2016C37.0634 35.7874 40.0014 36.2948 42.6345 38.4632C43.3147 39.0235 43.3194 39.4898 42.7142 40.137C40.3075 42.7083 40.3099 46.3438 42.7189 48.9456C43.3206 49.5951 43.3124 50.0556 42.6286 50.6182C40.0143 52.7678 37.1174 53.2412 34.0058 51.9033C31.0701 50.6406 29.2405 47.7345 29.2405 43.9088H29.2417ZM30.9998 44.5102C31.0948 46.9217 32.1105 48.8117 34.211 50.0051C36.287 51.1844 38.4087 51.1245 40.5046 49.9745C40.8646 49.7772 40.9585 49.6515 40.6711 49.2569C38.6116 46.4225 38.621 42.6707 40.6817 39.8046C40.9268 39.464 40.908 39.323 40.5445 39.121C38.4544 37.9616 36.3327 37.8853 34.2497 39.0482C32.1398 40.2251 31.1112 42.1104 30.9998 44.5102Z" fill="#030404"/>
<path d="M30.9998 44.5102C31.1112 42.1104 32.1398 40.2251 34.2497 39.0482C36.3327 37.8853 38.4544 37.9604 40.5445 39.121C40.9069 39.3218 40.9256 39.464 40.6817 39.8046C38.621 42.6707 38.6116 46.4225 40.6711 49.2568C40.9585 49.6515 40.8646 49.7772 40.5046 49.9745C38.4087 51.1257 36.287 51.1844 34.211 50.0051C32.1105 48.8117 31.0948 46.9217 30.9998 44.5102Z" fill="#9E8CE0"/>
</g>
<defs>
<clipPath id="clip0_66_97">
<rect width="55.082" height="60" fill="white"/>
</clipPath>
</defs>
</svg>
