<svg width="72" height="62" viewBox="0 0 72 62" fill="none" xmlns="http://www.w3.org/2000/svg">
<g clip-path="url(#clip0_66_118)">
<path d="M71.3782 59.002C71.2347 59.0373 71.244 59.1694 71.2049 59.2717C70.5993 60.8693 69.418 61.7528 67.7243 61.7677C64.6127 61.7937 61.4991 61.8011 58.3856 61.7677C56.1665 61.7435 54.7429 60.2202 54.7299 57.9065C54.7131 54.7298 54.7038 51.553 54.7429 48.3763C54.7504 47.6937 54.6106 47.4873 53.8821 47.4947C49.632 47.5356 45.38 47.5226 41.1299 47.504C40.6119 47.5021 40.4125 47.5914 40.4256 48.1736C40.4666 50.1432 40.4573 52.1166 40.4293 54.0862C40.4237 54.5531 40.5635 54.6702 41.0144 54.6628C42.151 54.6423 43.2931 54.6293 44.4279 54.6944C47.4743 54.8693 49.8966 57.4155 49.9413 60.4415C49.9525 61.2302 49.5388 61.6951 48.7432 61.7714C48.5587 61.79 48.3724 61.7788 48.1861 61.7788C33.5054 61.7788 18.8247 61.7788 4.14214 61.7788C1.39195 61.7788 0.00195312 60.382 0.00195312 57.6201C0.00195312 47.6249 0.00195312 37.6297 0.00195312 27.6346C0.00195312 25.6854 1.01557 24.3146 2.75773 23.8682C3.23845 23.7455 3.72849 23.7566 4.21108 23.7864C4.63404 23.8124 4.77565 23.6971 4.76074 23.2545C4.72534 22.2817 4.74956 21.3071 4.74956 20.3325C4.74956 15.6474 4.74397 10.9642 4.75143 6.27905C4.75515 4.21641 5.48555 2.49041 7.16436 1.21265C8.28046 0.360808 9.56052 0.00742461 10.9338 0.00742461C27.4274 -1.50369e-05 43.9211 -0.00559477 60.4129 0.00742461C64.0835 0.0111444 66.6231 2.6113 66.6269 6.31625C66.6343 14.2711 66.6362 22.2241 66.6157 30.1789C66.6157 30.735 66.7126 30.9154 67.3163 30.9043C69.5075 30.8671 70.4317 31.5571 71.3782 33.8095V59.0001V59.002ZM35.7115 2.37509C27.5355 2.37509 19.3595 2.37509 11.1834 2.37509C8.58417 2.37509 7.12896 3.82768 7.12896 6.42598C7.12709 11.9443 7.13827 17.4627 7.11591 22.9829C7.11405 23.5911 7.23144 23.7957 7.89662 23.792C13.4249 23.7622 18.9533 23.7734 24.4816 23.7771C24.9437 23.7771 25.4263 23.7101 25.8567 23.9073C26.289 24.1044 26.5498 23.9705 26.8666 23.6543C30.5353 19.9699 34.219 16.3021 37.899 12.6325C38.0797 12.454 38.2586 12.2642 38.471 12.1285C38.9797 11.803 39.4902 11.8458 39.9374 12.2475C40.3697 12.6362 40.4256 13.2649 40.0771 13.7633C39.9318 13.9698 39.7455 14.1502 39.5666 14.3306C35.9053 17.9891 32.2458 21.6475 28.5733 25.2948C28.2771 25.5887 28.1336 25.8249 28.3292 26.2415C28.5491 26.7065 28.5659 27.2254 28.5659 27.7369C28.5659 30.125 28.592 32.5131 28.5491 34.9012C28.5379 35.5299 28.7149 35.6471 29.3112 35.6452C37.5096 35.6247 45.7098 35.6229 53.9082 35.6471C54.5715 35.6489 54.7485 35.502 54.7429 34.825C54.7243 32.2992 56.1832 30.8931 58.7303 30.8894C60.3327 30.8894 61.937 30.8615 63.5376 30.9043C64.1077 30.9192 64.268 30.7834 64.2661 30.1919C64.2437 22.3078 64.2512 14.4236 64.2512 6.5413C64.2512 3.79607 62.837 2.37695 60.0998 2.37695C51.9704 2.37695 43.841 2.37695 35.7115 2.37695V2.37509ZM2.37576 40.8399C2.37576 45.1996 2.38507 49.5592 2.36272 53.9188C2.36085 54.4694 2.46147 54.6702 3.07076 54.6684C10.5276 54.6461 17.9844 54.6461 25.4393 54.6684C26.0803 54.6702 26.1977 54.4656 26.1958 53.8779C26.1772 45.2051 26.1846 36.5324 26.1827 27.8596C26.1827 26.5279 25.8064 26.1466 24.5002 26.1466C17.6937 26.1466 10.889 26.1466 4.08251 26.1466C2.75027 26.1466 2.37576 26.5168 2.37576 27.8298C2.37576 32.1653 2.37576 36.5026 2.37576 40.8381V40.8399ZM57.1205 44.2864C57.1205 47.5077 57.1298 50.7291 57.1111 53.9505C57.1074 54.4657 57.208 54.674 57.7894 54.6702C61.3184 54.6423 64.8456 54.6442 68.3746 54.6702C68.9224 54.674 69.0174 54.4935 69.0156 53.9951C68.9988 47.623 69.0063 41.2491 69.0044 34.8771C69.0044 33.6663 68.5908 33.2627 67.3591 33.2608C64.5046 33.2589 61.6482 33.2589 58.7937 33.2608C57.5062 33.2608 57.1261 33.6328 57.1242 34.9012C57.1205 38.0296 57.1242 41.158 57.1242 44.2864H57.1205ZM41.6851 45.1289C45.8197 45.1289 49.9543 45.1233 54.0889 45.1363C54.5361 45.1363 54.7504 45.0712 54.7429 44.543C54.7131 42.5492 54.7169 40.5554 54.7411 38.5615C54.7467 38.0891 54.5771 37.9924 54.1374 37.9924C45.7992 38.0036 37.4611 38.0054 29.123 37.9905C28.6423 37.9905 28.5528 38.1505 28.5566 38.5857C28.577 40.5572 28.5864 42.5269 28.551 44.4984C28.5416 45.0359 28.7056 45.1419 29.2124 45.14C33.3694 45.1196 37.5282 45.1289 41.6851 45.1289ZM14.3081 57.0249C12.5418 57.0249 10.7772 57.0249 9.01086 57.0249C6.98921 57.0249 4.96757 57.0212 2.94778 57.0323C2.754 57.0323 2.48196 56.8817 2.37576 57.2332C2.0031 58.47 2.70369 59.4 4.02848 59.4019C10.8592 59.4037 17.69 59.4037 24.5188 59.4019C25.771 59.4019 26.1436 58.9852 26.1958 57.7261C26.22 57.129 26.0206 57.01 25.4579 57.0137C21.7407 57.0398 18.0235 57.0267 14.3063 57.0267L14.3081 57.0249ZM37.8543 59.4019C40.802 59.4019 43.7496 59.4037 46.6973 59.3963C46.8874 59.3963 47.1538 59.5153 47.2563 59.2865C47.3458 59.0875 47.1613 58.8941 47.0514 58.723C46.2818 57.5289 45.1695 57.0156 43.759 57.0193C39.0933 57.0323 34.4277 57.0249 29.7621 57.0249C28.9932 57.0249 28.592 57.3975 28.5584 58.1427C28.5491 58.3491 28.5398 58.5668 28.4746 58.7602C28.3013 59.281 28.4578 59.4205 29.0093 59.4149C31.957 59.387 34.9047 59.4019 37.8524 59.4019H37.8543ZM33.3153 51.0285C33.3153 52.0701 33.3228 53.1098 33.3116 54.1513C33.3079 54.4675 33.3321 54.6665 33.7458 54.6591C35.0426 54.6349 36.3413 54.6405 37.6381 54.6572C37.9735 54.6609 38.0741 54.5493 38.0723 54.2201C38.0611 52.1389 38.0592 50.0558 38.0723 47.9746C38.0741 47.6119 37.9642 47.4966 37.6009 47.5021C36.3264 47.5207 35.0519 47.5207 33.7774 47.5021C33.4122 47.4966 33.3004 47.6137 33.3079 47.9746C33.3302 48.9919 33.3153 50.0093 33.3153 51.0285ZM63.0941 57.0249C61.2849 57.0249 59.4756 57.0193 57.6664 57.0323C57.4726 57.0323 57.2043 56.8928 57.1111 57.2592C56.7795 58.5593 57.4223 59.4019 58.7732 59.4037C61.5811 59.4056 64.3872 59.4037 67.1952 59.4037C68.6504 59.4037 68.9951 59.0317 69.0193 57.6033C69.0286 57.0825 68.8386 57.01 68.3839 57.0156C66.6213 57.0398 64.8586 57.0249 63.0941 57.0249ZM30.9415 51.1401C30.9415 50.5394 30.9602 49.9368 30.9359 49.336C30.9136 48.7446 31.2005 47.969 30.813 47.6137C30.4291 47.2641 29.6615 47.5542 29.0652 47.504C28.6739 47.4705 28.551 47.6044 28.5547 48.0043C28.5733 50.0614 28.5696 52.1203 28.5566 54.1774C28.5547 54.5233 28.6292 54.6833 29.0149 54.6591C29.4994 54.6275 29.9875 54.6312 30.4739 54.6591C30.8353 54.6795 30.9583 54.5624 30.9509 54.1922C30.9285 53.1749 30.9434 52.1575 30.9434 51.1401H30.9415Z" fill="#020201"/>
<path d="M35.7113 2.37511C43.8408 2.37511 51.9702 2.37511 60.0997 2.37511C62.8368 2.37511 64.251 3.79422 64.251 6.53945C64.251 14.4236 64.2436 22.3078 64.2659 30.1901C64.2659 30.7815 64.1076 30.9173 63.5374 30.9024C61.935 30.8615 60.3326 30.8876 58.7302 30.8876C56.1831 30.8913 54.7241 32.2974 54.7428 34.8231C54.7484 35.5001 54.5713 35.6471 53.908 35.6452C45.7096 35.6192 37.5094 35.621 29.311 35.6434C28.7148 35.6434 28.5378 35.5262 28.5489 34.8994C28.5918 32.5113 28.5676 30.1231 28.5657 27.735C28.5657 27.2235 28.5489 26.7046 28.3291 26.2396C28.1334 25.823 28.2769 25.5868 28.5732 25.2929C32.2457 21.6475 35.9051 17.9872 39.5664 14.3288C39.7472 14.1484 39.9335 13.9698 40.077 13.7615C40.4254 13.263 40.3714 12.6344 39.9372 12.2457C39.4882 11.8439 38.9795 11.8011 38.4708 12.1266C38.2584 12.2624 38.0795 12.4521 37.8988 12.6307C34.217 16.3003 30.5333 19.9699 26.8664 23.6525C26.5496 23.9705 26.2906 24.1045 25.8565 23.9054C25.4261 23.7083 24.9435 23.7753 24.4814 23.7753C18.9531 23.7715 13.4248 23.7604 7.89645 23.7901C7.23127 23.7939 7.11388 23.5893 7.11574 22.9811C7.1381 17.4627 7.12692 11.9444 7.12879 6.42414C7.12879 3.8277 8.584 2.37511 11.1833 2.37325C19.3593 2.37139 27.5353 2.37325 35.7113 2.37325V2.37511ZM34.612 26.0183C35.1356 26.0276 35.4505 25.6779 35.7803 25.3506C39.4714 21.668 43.1625 17.9853 46.8518 14.299C47.0475 14.1037 47.2506 13.9028 47.3884 13.6685C47.681 13.1719 47.6158 12.6772 47.2133 12.2698C46.8108 11.8625 46.3189 11.803 45.8158 12.0783C45.6165 12.1861 45.4395 12.348 45.2774 12.5098C41.534 16.2389 37.7945 19.9717 34.0568 23.7083C33.8779 23.8869 33.7009 24.0803 33.5816 24.2997C33.1512 25.0809 33.7232 26.0257 34.612 26.0202V26.0183ZM35.6219 7.12718C36.4101 7.12718 37.2001 7.14764 37.9883 7.1216C38.741 7.09742 39.2161 6.64733 39.246 5.99822C39.2758 5.33423 38.7857 4.78183 38.0199 4.76323C36.466 4.72604 34.9101 4.72604 33.3562 4.76323C32.5904 4.78183 32.1022 5.33609 32.1339 6.00194C32.1655 6.65105 32.6407 7.09742 33.3934 7.12346C34.135 7.1495 34.8785 7.12904 35.62 7.12904L35.6219 7.12718Z" fill="#CBE1DA"/>
<path d="M2.37562 40.8399C2.37562 36.5045 2.37562 32.1672 2.37562 27.8317C2.37562 26.5186 2.75013 26.1504 4.08237 26.1485C10.8889 26.1485 17.6936 26.1485 24.5001 26.1485C25.8062 26.1485 26.1826 26.5298 26.1826 27.8615C26.1826 36.5343 26.177 45.207 26.1956 53.8798C26.1956 54.4675 26.0801 54.6721 25.4392 54.6703C17.9824 54.6461 10.5256 54.6479 3.07062 54.6703C2.46319 54.6703 2.36071 54.4712 2.36257 53.9207C2.38493 49.5611 2.37562 45.2014 2.37562 40.8418V40.8399ZM14.526 39.0786C14.526 38.5411 14.28 38.1989 13.8459 37.9943C13.3074 37.7413 12.8379 37.9273 12.4522 38.3086C10.82 39.9212 9.18959 41.5393 7.57973 43.1741C6.98721 43.7768 6.99093 44.4686 7.51451 44.9597C7.98965 45.4042 8.707 45.3707 9.25667 44.8276C10.874 43.2318 12.4764 41.6193 14.0825 40.0141C14.3527 39.7426 14.5502 39.4376 14.5241 39.0768L14.526 39.0786ZM21.6567 39.0805C21.6474 38.6025 21.4443 38.2286 21.0046 38.0259C20.481 37.7841 19.9947 37.9069 19.6015 38.2956C17.9563 39.923 16.3129 41.5542 14.6918 43.2058C14.1422 43.7656 14.1515 44.4631 14.6303 44.9392C15.0999 45.406 15.8172 45.393 16.3669 44.8536C17.9991 43.2448 19.6127 41.6174 21.2356 39.9993C21.4909 39.7445 21.6642 39.4543 21.6586 39.0805H21.6567Z" fill="#CBE1DA"/>
<path d="M57.1203 44.2864C57.1203 41.158 57.1185 38.0296 57.1203 34.9013C57.1203 33.6328 57.5023 33.2608 58.7898 33.2608C61.6443 33.2608 64.5007 33.2589 67.3553 33.2608C68.5869 33.2608 69.0005 33.6663 69.0005 34.8771C69.0024 41.2491 68.9968 47.6231 69.0117 53.9951C69.0117 54.4936 68.9185 54.674 68.3707 54.6703C64.8417 54.6442 61.3145 54.6424 57.7855 54.6703C57.2042 54.674 57.1035 54.4675 57.1073 53.9505C57.1278 50.7291 57.1166 47.5077 57.1166 44.2864H57.1203ZM64.7076 41.1189C64.3815 41.1264 64.074 41.2696 63.8169 41.5263C62.7493 42.592 61.6704 43.6466 60.6177 44.7253C60.0643 45.2926 60.0475 45.9733 60.5245 46.455C61.0015 46.9386 61.6928 46.9349 62.2629 46.4067C62.7902 45.9175 63.2877 45.3967 63.7964 44.889C64.3703 44.3143 64.9572 43.7507 65.5125 43.1611C65.8702 42.7836 66.0137 42.326 65.7864 41.8183C65.587 41.3756 65.2237 41.158 64.7076 41.1171V41.1189Z" fill="#CBE1DA"/>
<path d="M41.685 45.1289C37.528 45.1289 33.3692 45.1196 29.2123 45.1401C28.7055 45.1419 28.5396 45.0359 28.5508 44.4984C28.5862 42.5287 28.5769 40.5572 28.5564 38.5857C28.5527 38.1505 28.6421 37.9906 29.1228 37.9906C37.461 38.0054 45.7991 38.0054 54.1372 37.9924C54.577 37.9924 54.7465 38.0873 54.7409 38.5616C54.7167 40.5554 54.713 42.5492 54.7428 44.543C54.7502 45.0712 54.536 45.1363 54.0888 45.1363C49.9542 45.1233 45.8196 45.1289 41.685 45.1289ZM35.7151 42.765C36.3598 42.7631 36.9206 42.22 36.9299 41.5914C36.9393 40.9832 36.3598 40.3843 35.743 40.3657C35.1021 40.3471 34.4965 40.9497 34.5058 41.5969C34.5151 42.2386 35.0629 42.7687 35.7151 42.765Z" fill="#D1CAEC"/>
<path d="M14.308 57.0268C18.0252 57.0268 21.7425 57.0398 25.4597 57.0137C26.0224 57.01 26.2218 57.1291 26.1975 57.7261C26.1472 58.9853 25.7746 59.4019 24.5206 59.4019C17.6899 59.4019 10.8591 59.4037 4.03023 59.4019C2.70359 59.4019 2.00486 58.4701 2.37751 57.2332C2.48372 56.8817 2.75389 57.0342 2.94954 57.0323C4.97118 57.0193 6.99283 57.0249 9.01261 57.0249C10.779 57.0249 12.5435 57.0249 14.3099 57.0249L14.308 57.0268Z" fill="#D1CAEC"/>
<path d="M37.8542 59.4037C34.9065 59.4037 31.9588 59.3888 29.0111 59.4167C28.4596 59.4223 28.303 59.2828 28.4763 58.7621C28.5415 58.5686 28.549 58.351 28.5602 58.1446C28.5962 57.3994 28.9974 57.0268 29.7638 57.0268C34.4295 57.0268 39.0951 57.0361 43.7607 57.0212C45.1712 57.0175 46.2836 57.5308 47.0531 58.7249C47.1631 58.896 47.3475 59.0875 47.2581 59.2884C47.1556 59.519 46.8892 59.3981 46.6991 59.3981C43.7514 59.4056 40.8037 59.4037 37.856 59.4037H37.8542Z" fill="#D1CAEC"/>
<path d="M33.3152 51.0285C33.3152 50.0112 33.3301 48.9919 33.3077 47.9746C33.3003 47.6119 33.4121 47.4966 33.7773 47.5022C35.0517 47.5208 36.3262 47.5208 37.6007 47.5022C37.964 47.4966 38.074 47.61 38.0721 47.9746C38.0572 50.0558 38.0591 52.1389 38.0721 54.2202C38.074 54.5494 37.9752 54.661 37.638 54.6572C36.3411 54.6405 35.0424 54.6349 33.7456 54.6591C33.3319 54.6665 33.3077 54.4675 33.3114 54.1513C33.3226 53.1098 33.3152 52.0701 33.3152 51.0285Z" fill="#D1CAEC"/>
<path d="M63.0922 57.0268C64.8548 57.0268 66.6193 57.0416 68.382 57.0175C68.8366 57.0119 69.0267 57.0844 69.0174 57.6052C68.9931 59.0336 68.6484 59.4056 67.1932 59.4056C64.3853 59.4056 61.5792 59.4075 58.7713 59.4056C57.4204 59.4056 56.7776 58.5612 57.1092 57.2611C57.2024 56.8947 57.4688 57.0361 57.6645 57.0342C59.4737 57.023 61.2829 57.0268 63.0922 57.0268Z" fill="#D1CAEC"/>
<path d="M34.612 26.0202C33.7251 26.0239 33.1512 25.0791 33.5816 24.2979C33.7027 24.0803 33.8797 23.885 34.0567 23.7064C37.7944 19.9699 41.534 16.2389 45.2773 12.5079C45.4394 12.3461 45.6164 12.1843 45.8158 12.0764C46.3189 11.803 46.8108 11.8607 47.2133 12.268C47.6157 12.6753 47.6809 13.17 47.3884 13.6666C47.2505 13.901 47.0456 14.1019 46.8518 14.2971C43.1625 17.9835 39.4714 21.6661 35.7802 25.3487C35.4504 25.6761 35.1355 26.0276 34.612 26.0164V26.0202Z" fill="#030301"/>
<path d="M35.6219 7.12904C34.8785 7.12904 34.1369 7.1495 33.3953 7.12346C32.6425 7.09742 32.1655 6.65291 32.1357 6.00194C32.1041 5.33609 32.5922 4.78183 33.358 4.76323C34.912 4.72604 36.4678 4.72604 38.0218 4.76323C38.7876 4.78183 39.2776 5.33423 39.2478 5.99822C39.218 6.64733 38.7429 7.09742 37.9901 7.1216C37.202 7.14764 36.4119 7.12718 35.6238 7.12718L35.6219 7.12904Z" fill="#050401"/>
<path d="M14.526 39.0805C14.5521 39.4413 14.3546 39.7463 14.0844 40.0179C12.4764 41.623 10.8758 43.2355 9.25853 44.8313C8.70887 45.3744 7.98964 45.406 7.51637 44.9634C6.9928 44.4742 6.98907 43.7805 7.58159 43.1779C9.19145 41.5411 10.8199 39.9249 12.454 38.3123C12.8397 37.931 13.3093 37.7451 13.8478 37.998C14.2819 38.2007 14.526 38.5448 14.5279 39.0823L14.526 39.0805Z" fill="#020201"/>
<path d="M21.6569 39.0823C21.6625 39.4562 21.4873 39.7463 21.2339 40.0011C19.6129 41.6211 17.9974 43.2467 16.3652 44.8555C15.8174 45.3967 15.1 45.4079 14.6286 44.9411C14.1498 44.4649 14.1405 43.7675 14.6901 43.2076C16.3112 41.556 17.9546 39.9249 19.5998 38.2975C19.993 37.9087 20.4793 37.786 21.0029 38.0278C21.4445 38.2305 21.6457 38.6043 21.655 39.0823H21.6569Z" fill="#030302"/>
<path d="M64.7058 41.1189C65.222 41.1599 65.5853 41.3775 65.7847 41.8201C66.0138 42.326 65.8685 42.7836 65.5108 43.163C64.9536 43.7526 64.3686 44.3161 63.7947 44.8908C63.286 45.3986 62.7885 45.9212 62.2612 46.4085C61.6911 46.9367 60.9998 46.9405 60.5228 46.4569C60.0477 45.9752 60.0626 45.2944 60.616 44.7272C61.6706 43.6484 62.7475 42.5938 63.8152 41.5281C64.0723 41.2714 64.3798 41.1282 64.7058 41.1208V41.1189Z" fill="#030302"/>
<path d="M35.7152 42.765C35.0631 42.7668 34.5153 42.2386 34.506 41.5969C34.4966 40.9497 35.1022 40.3471 35.7432 40.3657C36.3599 40.3843 36.9413 40.9832 36.9301 41.5914C36.9208 42.22 36.3599 42.7631 35.7152 42.765Z" fill="#050401"/>
</g>
<defs>
<clipPath id="clip0_66_118">
<rect width="71.3781" height="61.79" fill="white"/>
</clipPath>
</defs>
</svg>
