<svg width="306" height="172" viewBox="0 0 306 172" fill="none" xmlns="http://www.w3.org/2000/svg">
<rect width="306" height="172" rx="20" fill="#9E8CE0"/>
<mask id="mask0_74_178" style="mask-type:alpha" maskUnits="userSpaceOnUse" x="0" y="0" width="306" height="172">
<rect width="306" height="172" rx="20" fill="#9E8CE0"/>
</mask>
<g mask="url(#mask0_74_178)">
<g style="mix-blend-mode:screen">
<rect x="68" y="24.6653" width="272.793" height="225.607" rx="23" transform="rotate(-34.0308 68 24.6653)" fill="url(#paint0_linear_74_178)" fill-opacity="0.6"/>
</g>
<g style="mix-blend-mode:multiply">
<rect x="134.367" y="66" width="211.279" height="174.733" rx="23" transform="rotate(30 134.367 66)" fill="url(#paint1_linear_74_178)"/>
</g>
<path d="M129.288 164.358C108.161 158.416 96.5778 185.235 113.291 201.965C113.454 202.128 113.673 202.231 113.903 202.251L297.446 218.827C297.977 218.875 298.451 218.499 298.526 217.972L320.866 60.6878C320.926 60.2642 320.713 59.8531 320.32 59.6827C314.049 56.961 263.439 38.5512 226.163 134.462C209.372 177.666 170.677 175.998 129.288 164.358Z" fill="#F99DA0"/>
<path d="M229.118 30.6103C262.486 48.8197 303.189 18.3315 287.805 -18.1147C272.988 -53.2175 139.544 -102.7 129.727 -106.3C129.347 -106.439 128.979 -106.314 128.706 -106.016L38.499 -7.47512C26.8902 5.20619 24.6346 24.8316 39.7576 33.0093C58.3686 43.0731 91.0592 47.462 143.582 15.5458C183.194 -8.52479 201.639 15.6144 229.118 30.6103Z" fill="#F99DA0"/>
</g>
<defs>
<linearGradient id="paint0_linear_74_178" x1="345.112" y1="24.0232" x2="204.396" y2="250.272" gradientUnits="userSpaceOnUse">
<stop stop-color="#9E8CE0"/>
<stop offset="1" stop-color="#9E8CE0" stop-opacity="0"/>
</linearGradient>
<linearGradient id="paint1_linear_74_178" x1="348.991" y1="65.5027" x2="240.006" y2="240.733" gradientUnits="userSpaceOnUse">
<stop stop-color="#9E8CE0"/>
<stop offset="1" stop-color="#9E8CE0" stop-opacity="0"/>
</linearGradient>
</defs>
</svg>
