<svg width="24" height="24" viewBox="0 0 24 24" fill="none" xmlns="http://www.w3.org/2000/svg">
<path d="M17.8333 16.1665C16.9554 16.1662 16.0931 15.9346 15.3333 15.4949C14.5735 15.9346 13.7112 16.1662 12.8333 16.1665H11.1666C10.2875 16.1654 9.42462 15.9301 8.66664 15.4849C7.90868 15.9302 7.04574 16.1655 6.16664 16.1665H5.33331C4.45466 16.1662 3.59188 15.9324 2.83331 15.489V19.4999C2.83331 20.1629 3.0967 20.7988 3.56554 21.2676C4.03439 21.7365 4.67027 21.9999 5.33331 21.9999H18.6666C19.3297 21.9999 19.9655 21.7365 20.4344 21.2676C20.9032 20.7988 21.1666 20.1629 21.1666 19.4999V15.4899C20.4078 15.9326 19.5451 16.1661 18.6666 16.1665H17.8333Z" fill="#414549"/>
<path d="M16.1666 2V6.99999H14.5V2H9.49999V6.99999H7.83333V2H3.83333L2.02 10.1525L2 11.1667C2 12.0507 2.35119 12.8986 2.97631 13.5237C3.60143 14.1488 4.44928 14.5 5.33333 14.5H6.16666C6.64157 14.4985 7.1106 14.3948 7.54194 14.1961C7.97329 13.9974 8.35686 13.7083 8.66666 13.3483C8.97645 13.7083 9.36003 13.9974 9.79137 14.1961C10.2227 14.3948 10.6917 14.4985 11.1667 14.5H12.8333C13.3065 14.5002 13.7743 14.3995 14.2054 14.2045C14.6365 14.0095 15.0211 13.7247 15.3333 13.3692C15.6456 13.7247 16.0301 14.0095 16.4612 14.2045C16.8924 14.3995 17.3601 14.5002 17.8333 14.5H18.6666C19.5507 14.5 20.3985 14.1488 21.0237 13.5237C21.6488 12.8986 22 12.0507 22 11.1667V10.3333L20.1666 2H16.1666Z" fill="#414549"/>
</svg>
