<svg width="65" height="60" viewBox="0 0 65 60" fill="none" xmlns="http://www.w3.org/2000/svg">
<g clip-path="url(#clip0_72_81)">
<path d="M0 17.9576C0.127231 17.9198 0.112164 17.8049 0.143972 17.7112C0.676334 16.0833 1.7963 15.0961 3.51225 14.7939C3.7868 14.7462 3.87386 14.6608 3.94249 14.4029C5.10934 10.0055 8.22818 7.57598 12.5105 6.4409C13.5685 6.16165 14.2532 5.76577 14.8727 4.82123C19.3425 -2.00569 30.1086 -1.47346 33.954 5.71649C34.0126 5.8249 34.0477 5.95467 34.1298 6.04009C34.3658 6.2832 34.7191 6.37027 34.9869 6.25199C35.2749 6.12551 34.9802 5.86268 34.9317 5.67049C34.8329 5.27461 34.6672 4.89515 34.5684 4.50091C34.0126 2.2636 35.0489 0.642291 37.3424 0.133065C38.5042 -0.124834 39.6275 0.00822204 40.7073 0.464883C42.9221 1.40285 45.1453 1.56218 47.4623 0.781918C49.3473 0.146206 51.4701 1.05624 52.4527 2.76133C52.9734 3.6648 52.9416 4.59783 52.662 5.5555C52.1112 7.44293 51.1202 9.12337 50.0655 10.7677C49.8562 11.0946 49.7809 11.2671 50.1743 11.5233C50.6598 11.842 50.8188 12.3775 50.7569 12.9344C50.71 13.35 50.8624 13.4715 51.2658 13.5717C53.6012 14.1549 55.8009 15.0419 57.8032 16.3922C60.4198 18.1564 61.7423 20.7124 62.494 23.6215C63.7043 28.3114 63.8265 33.0915 63.6993 37.8947C63.5771 42.4761 62.7903 46.9704 61.9549 51.4631C61.8277 52.1464 61.7775 52.8429 61.6904 53.5328C61.6335 53.9911 61.8427 54.3722 62.0688 54.7402C62.5827 55.5812 63.1285 56.4042 63.6273 57.2535C63.9303 57.7676 64.1748 58.3146 64.1312 58.9356C64.0827 59.6436 63.7278 60 63.0749 60C43.3674 60 23.6583 59.9967 3.95086 59.9951C3.25444 59.9951 2.82252 59.4497 2.91795 58.6744C2.98659 58.1159 3.21761 57.6083 3.52062 57.1418C4.03792 56.35 4.55856 55.5582 5.12106 54.7977C5.64505 54.0864 5.77228 53.3472 5.58813 52.4897C5.01894 49.8286 4.47988 47.1626 3.95421 44.4916C3.0502 39.8987 2.90121 35.2631 3.19083 30.6062C3.34149 28.1947 3.54573 25.7866 3.88223 23.3932C3.94082 22.9793 3.8906 22.8133 3.39172 22.7312C1.88001 22.4815 0.848766 21.5896 0.259485 20.2032C0.18415 20.0257 0.215958 19.7925 0 19.6808V17.9593L0 17.9576ZM4.3878 58.6005C4.56191 58.6087 4.66403 58.6185 4.76782 58.6185C17.2917 58.6185 29.8156 58.6185 42.3395 58.6267C42.8351 58.6267 42.9472 58.492 42.7028 58.0781C42.1688 57.1763 41.6364 56.2728 41.094 55.3776C40.5985 54.5595 40.344 53.6938 40.493 52.7378C40.7123 51.3235 40.9065 49.9025 41.1627 48.4948C41.8725 44.582 42.3948 40.6511 42.4684 36.6692C42.5488 32.2439 42.445 27.8235 42.219 23.4047C42.1939 22.9168 42.0131 22.8495 41.5812 22.8511C36.0282 22.8643 30.4769 22.8593 24.9239 22.8593C24.7381 22.8593 24.5523 22.8593 24.3447 22.8593C24.7264 23.702 24.5037 24.5496 24.5439 25.3759C24.559 25.6995 24.631 25.9508 24.857 26.1972C25.535 26.9364 26.0556 27.7758 26.2967 28.7483C26.3955 29.1475 26.5528 29.1721 26.8977 29.0292C27.3999 28.8222 27.9423 28.7072 28.4797 28.6924C28.9635 28.6777 29.0556 28.4904 29.0422 28.06C29.0104 27.0991 29.0322 26.1348 29.0355 25.1722C29.0355 24.7402 29.2347 24.4544 29.6968 24.4445C30.1839 24.4347 30.4083 24.7205 30.4334 25.1771C30.4384 25.279 30.435 25.3825 30.435 25.4843C30.435 32.3868 30.4384 39.2893 30.4384 46.1901C30.4384 46.3938 30.4551 46.6057 30.4083 46.8012C29.7051 49.7432 28.0511 51.1559 25.0143 51.3596C24.5506 51.3908 24.4803 51.5584 24.487 51.951C24.5088 53.0975 24.4954 54.2441 24.4937 55.3923C24.4937 55.8654 24.3681 56.263 23.7939 56.2991C23.3235 56.3287 23.069 55.9985 23.0657 55.3611C23.059 54.3377 23.064 53.3127 23.064 52.2893C23.064 51.4023 23.064 51.4072 22.165 51.2758C20.3101 51.0064 18.8721 50.1588 18.0903 48.4159C17.6065 47.3351 17.362 46.2131 17.4324 45.0205C17.4826 44.1631 17.4541 43.3023 17.4524 42.4432C17.4524 40.7644 17.439 39.0856 17.4407 37.4084C17.4424 34.9313 17.4524 32.4558 17.4591 29.9787C17.4642 28.4231 17.4658 26.8674 17.4759 25.3118C17.4792 24.8355 17.6199 24.4264 18.2058 24.4462C18.775 24.4659 18.9089 24.8618 18.9056 25.3447C18.9005 26.2876 18.9223 27.2288 18.8955 28.1701C18.8855 28.543 18.9976 28.6596 19.3777 28.676C19.8966 28.699 20.4139 28.8009 20.9028 28.9848C21.2108 29.1015 21.343 29.0144 21.4251 28.699C21.6611 27.7906 22.1349 26.9923 22.7677 26.3007C23.0741 25.9656 23.1544 25.6223 23.1678 25.1936C23.1929 24.4281 22.9853 23.6396 23.3687 22.8561C23.1209 22.8561 22.8932 22.8561 22.6656 22.8561C17.1545 22.8561 11.645 22.8708 6.13388 22.8363C5.44918 22.8314 5.32195 23.086 5.25331 23.6528C4.93188 26.3172 4.66738 28.9865 4.55689 31.6657C4.44472 34.3662 4.43133 37.0684 4.70421 39.7673C5.06079 43.2974 5.84594 46.7486 6.5591 50.2163C7.34593 54.0454 7.68075 53.5394 5.19807 57.1418C4.89673 57.5787 4.5753 58.0058 4.3878 58.5972V58.6005ZM53.4572 58.6267C56.2948 58.6267 59.1341 58.6267 61.9716 58.6267C62.7501 58.6267 62.7836 58.5955 62.3835 57.9089C61.898 57.0744 61.3623 56.2679 60.855 55.4449C60.4248 54.7451 60.1653 54.001 60.2858 53.1682C60.4181 52.2565 60.5236 51.3415 60.696 50.4381C61.4962 46.2525 62.1725 42.0572 62.2931 37.7862C62.4153 33.4775 62.2964 29.1918 61.369 24.962C60.9237 22.9316 60.3243 20.9424 58.9482 19.303C57.4315 17.4944 55.3908 16.4332 53.1994 15.625C52.0292 15.193 50.8372 14.6854 49.5951 14.6822C47.9494 14.6772 46.3004 14.6723 44.6531 14.7166C44.4656 14.7216 44.1877 14.5918 44.1057 14.8563C44.0103 15.1667 44.3434 15.1897 44.5192 15.2982C45.9037 16.1606 46.6353 17.404 46.5465 19.0007C46.4561 20.6516 45.5638 21.8392 44.0086 22.5029C43.6939 22.6376 43.5616 22.769 43.5867 23.1222C43.7659 25.6552 43.8312 28.1931 43.8948 30.731C43.9818 34.2134 43.9232 37.6893 43.6336 41.1636C43.3524 44.5327 42.7497 47.8558 42.1102 51.1707C41.7737 52.9103 41.8859 54.4708 43.0494 55.9098C43.5767 56.5619 44.0036 57.3159 44.2011 58.1405C44.2999 58.5545 44.4824 58.6432 44.8775 58.6415C47.7368 58.6267 50.5962 58.6333 53.4555 58.6333L53.4572 58.6267ZM42.5773 14.7413C42.4249 13.9117 42.1537 13.207 41.7636 12.5533C39.9791 9.55211 37.1783 8.08192 33.795 7.5152C33.4216 7.45278 33.1772 7.36408 32.9964 6.9797C31.2654 3.29355 28.237 1.4242 24.1756 1.41599C20.0975 1.40777 17.0322 3.24592 15.2761 6.95834C15.1422 7.24252 15.0066 7.40186 14.6534 7.43471C13.8866 7.50863 13.1266 7.6499 12.3917 7.88645C9.18074 8.91804 6.68968 10.7365 5.51614 13.9791C5.24327 14.7347 5.26168 14.7413 6.07529 14.7413C17.9948 14.7413 29.9144 14.7413 41.834 14.7413C42.0633 14.7413 42.291 14.7413 42.5773 14.7413ZM23.2867 21.4154C29.6516 21.4154 36.0182 21.4154 42.3831 21.4154C43.5449 21.4154 44.397 20.9029 44.8758 19.8812C45.3311 18.9104 45.219 17.9543 44.5309 17.1117C43.9098 16.3511 43.0527 16.1162 42.0817 16.1178C29.5377 16.1261 16.9954 16.1228 4.45142 16.1228C4.30577 16.1228 4.15845 16.1178 4.01281 16.1277C2.3069 16.2427 1.14843 17.7047 1.48325 19.3194C1.74776 20.599 2.80913 21.4138 4.2522 21.4138C10.597 21.4187 16.9418 21.4154 23.2867 21.4138V21.4154ZM45.3479 11.1094C46.1414 11.1094 46.9333 11.1094 47.7268 11.1094C47.9578 11.1094 48.1738 11.1159 48.3244 10.8794C49.4678 9.09545 50.643 7.3263 51.2826 5.28939C51.691 3.99169 51.311 3.04715 50.1408 2.37202C49.3373 1.90714 48.5002 1.86443 47.6163 2.1749C45.8183 2.80568 43.9902 2.82375 42.1353 2.39994C41.2765 2.20282 40.493 1.81515 39.6543 1.57368C38.4607 1.22872 37.3474 1.32235 36.3613 2.13876C35.911 2.51 35.7135 2.96502 35.7972 3.54981C35.9462 4.59947 36.4032 5.54072 36.8184 6.50004C36.9607 6.82693 37.1833 7.00762 37.5098 7.14889C39.3948 7.96201 41.022 9.10859 42.2341 10.766C42.4266 11.0305 42.6442 11.1225 42.9673 11.1159C43.7592 11.0979 44.5527 11.1094 45.3462 11.1094H45.3479ZM25.2336 49.9502C27.1103 49.9502 28.7576 48.4439 28.9233 46.5926C28.9401 46.3938 28.9685 46.2525 28.6605 46.2575C26.7822 46.2854 25.1449 47.7474 24.9423 49.6003C24.9156 49.8385 24.9223 50.0208 25.2353 49.9502H25.2336ZM25.2521 33.7321C27.2526 33.6073 28.6756 32.3047 28.9166 30.3975C28.9451 30.1676 28.9669 30.023 28.622 30.0427C26.6616 30.1626 25.2002 31.4702 24.944 33.3658C24.9105 33.6139 24.8804 33.8471 25.2521 33.7305V33.7321ZM28.5567 34.4106C26.6215 34.5108 25.1633 35.8643 24.939 37.7222C24.9038 38.0179 24.9591 38.1394 25.2906 38.0803C27.4066 37.7041 28.4228 36.9764 28.8949 34.8459C28.9652 34.5321 28.9669 34.2989 28.5567 34.4106ZM22.9585 33.4365C22.8899 31.6427 21.1472 30.0575 19.2404 30.0394C19.0211 30.0378 18.9708 30.0739 18.9859 30.3088C19.1064 32.1634 20.8057 33.7502 22.6639 33.7338C22.905 33.7321 23.0289 33.6894 22.9569 33.4365H22.9585ZM22.6087 49.9338C23.0104 50.0487 22.9853 49.8089 22.9401 49.4968C22.6672 47.6439 21.2074 46.3577 19.2739 46.264C19.0261 46.2525 18.9658 46.2838 18.9909 46.5548C19.1734 48.434 20.6567 49.8467 22.6087 49.9338ZM19.4212 34.4155C18.9725 34.3909 18.9524 34.3941 19.0328 34.8262C19.448 37.0783 20.7136 37.7632 22.7309 38.0803C22.9552 38.1148 22.997 38.0441 22.9803 37.8142C22.8497 35.9842 21.3296 34.5206 19.4212 34.4155ZM18.9608 38.6503C19.0746 39.5932 19.2571 40.5574 19.9954 41.1044C20.7487 41.6646 21.7616 41.8436 22.617 42.2937C22.8447 42.4136 23.0121 42.3348 22.9652 41.9718C22.7041 39.9496 21.184 38.6503 18.9625 38.6503H18.9608ZM25.2135 42.3299C25.3307 42.2954 25.4663 42.2855 25.5634 42.2214C26.1929 41.8042 26.886 41.5348 27.6159 41.3492C27.79 41.3048 27.9038 41.1882 28.0093 41.0617C28.5266 40.4424 28.771 39.7114 28.9217 38.9394C28.9669 38.7045 28.9016 38.6224 28.6337 38.6256C26.7638 38.647 25.098 40.1599 24.9373 41.9931C24.9189 42.2034 24.9105 42.3742 25.2119 42.3282L25.2135 42.3299ZM24.9457 46.2624C25.0495 46.2443 25.1265 46.2525 25.1667 46.2197C25.9501 45.5807 26.8441 45.1799 27.8452 45.0041C28.031 44.9713 28.1348 44.8661 28.2286 44.7265C28.5986 44.1713 28.7944 43.5536 28.9183 42.9081C28.9568 42.7027 28.9485 42.5763 28.6505 42.5795C26.6349 42.6075 25.0177 44.1828 24.9474 46.2608L24.9457 46.2624ZM19.2822 42.5976C18.9792 42.5188 18.9575 42.6502 19.0027 42.9212C19.0847 43.4107 19.242 43.869 19.4413 44.3208C19.6271 44.7396 19.9016 44.9975 20.3972 45.0813C21.184 45.2144 21.8955 45.5593 22.5283 46.0505C22.6371 46.1359 22.7459 46.3051 22.8966 46.223C23.0908 46.1178 22.9468 45.9257 22.9251 45.7827C22.6405 43.9167 21.2711 42.7208 19.2839 42.5976H19.2822ZM23.958 31.7544C24.2225 31.2665 24.415 30.8082 24.7682 30.4616C25.0545 30.1807 25.0997 29.862 25.0344 29.5089C24.872 28.6317 24.4786 27.8678 23.8525 27.1943C23.2783 27.8235 22.8999 28.515 22.7191 29.3068C22.6656 29.5401 22.5635 29.816 22.7593 30.0082C23.2632 30.5043 23.6265 31.0924 23.9596 31.7544H23.958ZM43.4026 12.5303C43.4327 13.138 43.6956 13.3779 44.2832 13.3155C44.7368 13.2678 45.2006 13.3056 45.6593 13.3056C46.7441 13.3056 47.8306 13.3023 48.9154 13.3056C49.1765 13.3056 49.359 13.258 49.3624 12.9393C49.3657 12.6551 49.2603 12.527 48.9639 12.527C47.1107 12.5319 45.2592 12.5286 43.4009 12.5286L43.4026 12.5303ZM23.5478 35.1908C23.6131 35.5128 23.7822 35.7559 23.973 36.0631C24.1338 35.751 24.2677 35.4914 24.4234 35.1908H23.5461H23.5478ZM23.9898 40.3488C24.0986 40.0186 24.41 39.7919 24.2677 39.5587C24.1555 39.3747 23.8274 39.4552 23.5579 39.5275C23.6416 39.81 23.7638 40.0548 23.9898 40.3488Z" fill="#040302"/>
<path d="M4.3877 58.6005C4.57519 58.0107 4.89662 57.582 5.19796 57.1451C7.68064 53.5427 7.34582 54.0486 6.559 50.2196C5.84583 46.7519 5.06068 43.299 4.7041 39.7706C4.43122 37.0717 4.44461 34.3711 4.55678 31.669C4.66727 28.9898 4.93345 26.3204 5.2532 23.656C5.32184 23.0893 5.44907 22.8347 6.13378 22.8396C11.6449 22.8741 17.1543 22.8593 22.6655 22.8593C22.8931 22.8593 23.1208 22.8593 23.3686 22.8593C22.9852 23.6429 23.1928 24.4314 23.1677 25.1969C23.1543 25.6256 23.0739 25.9689 22.7676 26.304C22.1348 26.9956 21.661 27.7939 21.425 28.7023C21.3429 29.0193 21.2107 29.1048 20.9026 28.9881C20.4121 28.8041 19.8965 28.7023 19.3775 28.6793C18.9975 28.6629 18.8837 28.5462 18.8954 28.1734C18.9222 27.2321 18.9004 26.2892 18.9054 25.348C18.9088 24.865 18.7732 24.4675 18.2057 24.4494C17.6197 24.4297 17.4791 24.8387 17.4758 25.3151C17.4657 26.8707 17.4641 28.4263 17.459 29.9819C17.4523 32.4591 17.4423 34.9346 17.4406 37.4117C17.4406 39.0905 17.4507 40.7693 17.4523 42.4465C17.4523 43.3056 17.4808 44.168 17.4322 45.0238C17.3636 46.2164 17.6063 47.3383 18.0902 48.4192C18.8703 50.1621 20.31 51.0081 22.1649 51.2791C23.0622 51.4105 23.0639 51.4056 23.0639 52.2926C23.0639 53.316 23.0589 54.341 23.0656 55.3644C23.0689 56.0001 23.3234 56.3319 23.7938 56.3024C24.368 56.2662 24.4936 55.8687 24.4936 55.3956C24.4969 54.249 24.5086 53.1008 24.4869 51.9542C24.4802 51.5616 24.5505 51.3941 25.0142 51.3629C28.0494 51.1592 29.705 49.7465 30.4082 46.8045C30.455 46.609 30.4383 46.3971 30.4383 46.1934C30.4383 39.2909 30.4366 32.3884 30.4349 25.4876C30.4349 25.3858 30.4383 25.2823 30.4333 25.1804C30.4082 24.7238 30.1838 24.4379 29.6967 24.4478C29.2329 24.4577 29.0354 24.7435 29.0354 25.1755C29.032 26.1381 29.012 27.1007 29.0421 28.0633C29.0555 28.492 28.9634 28.6809 28.4796 28.6957C27.9422 28.7122 27.3998 28.8255 26.8976 29.0325C26.5527 29.1754 26.3953 29.1507 26.2966 28.7516C26.0555 27.7791 25.5349 26.9381 24.8569 26.2005C24.6292 25.9541 24.5589 25.7028 24.5438 25.3792C24.5036 24.5529 24.7263 23.7053 24.3446 22.8626C24.5505 22.8626 24.738 22.8626 24.9238 22.8626C30.4768 22.8626 36.0281 22.8676 41.5811 22.8544C42.0113 22.8544 42.1938 22.9201 42.2189 23.408C42.4466 27.8268 42.5504 32.2488 42.4683 36.6725C42.3947 40.6543 41.8724 44.5836 41.1625 48.4981C40.9064 49.9075 40.7122 51.3267 40.4929 52.7411C40.3439 53.6971 40.5984 54.5628 41.0939 55.3808C41.6363 56.2777 42.1687 57.1812 42.7027 58.0814C42.9471 58.4953 42.835 58.63 42.3394 58.63C29.8155 58.6202 17.2916 58.6218 4.76771 58.6218C4.6656 58.6218 4.5618 58.612 4.3877 58.6037V58.6005Z" fill="#9E8CE0"/>
<path d="M53.4573 58.6267C50.5979 58.6267 47.7386 58.6202 44.8792 58.6349C44.4824 58.6366 44.3016 58.5479 44.2029 58.1339C44.0037 57.3093 43.5768 56.5553 43.0511 55.9032C41.8876 54.4642 41.7754 52.9037 42.1119 51.1641C42.7531 47.8508 43.3541 44.5261 43.6354 41.157C43.925 37.6844 43.9836 34.2069 43.8965 30.7244C43.8329 28.1865 43.7676 25.6486 43.5885 23.1156C43.5634 22.7624 43.6956 22.631 44.0104 22.4963C45.5656 21.8343 46.4579 20.645 46.5483 18.9941C46.6353 17.3975 45.9054 16.154 44.5209 15.2916C44.3452 15.1815 44.012 15.1585 44.1074 14.8497C44.1895 14.5852 44.4657 14.715 44.6549 14.7101C46.3022 14.6657 47.9512 14.6706 49.5968 14.6756C50.839 14.6789 52.0309 15.1881 53.2011 15.6185C55.3925 16.4267 57.4332 17.4878 58.95 19.2964C60.3261 20.9374 60.9254 22.9267 61.3707 24.9554C62.2998 29.1852 62.417 33.4709 62.2948 37.7797C62.1743 42.0506 61.4979 46.246 60.6977 50.4315C60.5253 51.3349 60.4198 52.2515 60.2876 53.1616C60.1654 53.9944 60.4249 54.7402 60.8568 55.4383C61.364 56.2613 61.8997 57.0662 62.3852 57.9023C62.7853 58.5906 62.7518 58.6202 61.9734 58.6202C59.1358 58.6202 56.2965 58.6202 53.4589 58.6202L53.4573 58.6267ZM46.4378 38.5501C46.1498 38.7209 45.7481 38.5041 45.7012 39.0199C45.4049 42.2674 47.4674 44.784 50.7553 45.1027C51.2073 45.147 51.3044 45.2998 51.291 45.699C51.2659 46.4562 51.2759 47.2151 51.2876 47.9724C51.2943 48.4176 51.4249 48.8118 51.9757 48.82C52.5482 48.8282 52.7156 48.4471 52.719 47.9625C52.724 47.1839 52.7374 46.4053 52.7123 45.6283C52.7006 45.2587 52.8194 45.1454 53.2028 45.1273C57.2457 44.9417 58.6419 42.2641 58.647 39.1809C58.647 38.9295 58.6654 38.6749 58.2937 38.6634C57.8769 38.6503 57.9723 38.44 58.0845 38.1805C58.4193 37.4018 58.6101 36.5871 58.6403 35.7395C58.6615 35.1153 58.3668 34.7391 57.7563 34.611C58.287 33.5958 58.5934 32.5297 58.6553 31.3881C58.6888 30.7721 58.6252 30.34 57.8534 30.3992C57.825 30.4008 57.7915 30.3532 57.7279 30.3006C58.3573 29.1984 58.6386 28.0025 58.6604 26.7311C58.6687 26.2334 58.4745 26.097 58.0158 26.0872C57.0047 26.0625 56.0119 26.1562 55.0661 26.5143C54.7296 26.6424 54.6157 26.5948 54.5304 26.2564C54.1955 24.9406 53.402 23.9057 52.426 22.9776C52.1448 22.7098 51.9723 22.7361 51.7112 22.9858C50.7804 23.8679 50.012 24.8585 49.6587 26.0905C49.5332 26.5258 49.3675 26.5274 49.0125 26.4141C48.1102 26.125 47.1794 26.0461 46.2335 26.0954C45.8552 26.1151 45.6962 26.235 45.7029 26.6473C45.7196 27.812 45.9238 28.9241 46.4612 29.9704C46.5483 30.1413 46.8011 30.432 46.3407 30.4205C45.6861 30.4025 45.6577 30.7688 45.7162 31.2402C45.7615 31.6049 45.7882 31.9712 45.8284 32.3375C45.9155 33.1539 46.262 33.8915 46.6102 34.6405C45.7012 34.744 45.7079 34.744 45.7179 35.5818C45.7313 36.6216 46.0092 37.599 46.4411 38.5534L46.4378 38.5501Z" fill="#9E8CE0"/>
<path d="M42.5774 14.7413H6.07539C5.2601 14.7413 5.24169 14.7347 5.51456 13.9791C6.6881 10.7365 9.18083 8.91803 12.3917 7.88644C13.1267 7.6499 13.8867 7.50698 14.6534 7.43471C15.0067 7.40021 15.1423 7.24252 15.2762 6.95833C17.034 3.24591 20.0993 1.40777 24.1757 1.41598C28.2371 1.4242 31.2655 3.29355 32.9965 6.97969C33.1773 7.36407 33.4234 7.45278 33.7951 7.5152C37.1784 8.08192 39.9792 9.5521 41.7637 12.5533C42.1538 13.2087 42.425 13.9134 42.5774 14.7413Z" fill="#FFEFD2"/>
<path d="M23.2866 21.4154C16.9418 21.4154 10.597 21.4187 4.25218 21.4154C2.80911 21.4154 1.74773 20.6007 1.48322 19.321C1.15008 17.7063 2.30855 16.2443 4.01278 16.1293C4.15843 16.1195 4.30407 16.1244 4.45139 16.1244C16.9954 16.1244 29.5377 16.126 42.0817 16.1195C43.0527 16.1195 43.9081 16.3544 44.5309 17.1133C45.219 17.9543 45.3328 18.9104 44.8758 19.8828C44.3953 20.9062 43.5449 21.4187 42.383 21.4171C36.0181 21.4154 29.6516 21.4171 23.2866 21.4171V21.4154Z" fill="#9E8CE0"/>
<path d="M45.3462 11.1093C44.5527 11.1093 43.7609 11.0962 42.9673 11.1159C42.6442 11.1241 42.4266 11.0305 42.2341 10.766C41.022 9.10858 39.3948 7.96035 37.5098 7.14888C37.1833 7.00761 36.9607 6.82691 36.8184 6.50002C36.4032 5.54071 35.9445 4.59946 35.7972 3.5498C35.7152 2.96501 35.9127 2.50999 36.3614 2.13875C37.3474 1.32399 38.4607 1.23035 39.6543 1.57367C40.493 1.81514 41.2765 2.20281 42.1353 2.39993C43.9902 2.82374 45.8167 2.80567 47.6163 2.17489C48.5002 1.86442 49.3373 1.90877 50.1408 2.37201C51.311 3.04714 51.6911 3.99167 51.2826 5.28938C50.6414 7.32628 49.4662 9.09544 48.3245 10.8794C48.1738 11.1159 47.9578 11.1093 47.7268 11.1093C46.9333 11.1077 46.1414 11.1093 45.3479 11.1093H45.3462Z" fill="#9E8CE0"/>
<path d="M25.2319 49.9502C24.9189 50.0208 24.9138 49.8385 24.9389 49.6003C25.1415 47.7473 26.7788 46.2854 28.6571 46.2574C28.9668 46.2525 28.9384 46.3938 28.9199 46.5926C28.7559 48.4438 27.1086 49.9502 25.2302 49.9502H25.2319Z" fill="#FFE5BC"/>
<path d="M25.2505 33.7321C24.8788 33.8471 24.9089 33.6139 24.9424 33.3675C25.1986 31.4718 26.66 30.1643 28.6204 30.0443C28.9636 30.023 28.9435 30.1676 28.915 30.3992C28.6757 32.3063 27.251 33.6089 25.2505 33.7338V33.7321Z" fill="#FFE5BC"/>
<path d="M28.5551 34.4106C28.9653 34.2989 28.9636 34.5321 28.8933 34.8459C28.4212 36.9764 27.405 37.7041 25.289 38.0803C24.9575 38.1394 24.9023 38.0162 24.9374 37.7222C25.1601 35.8643 26.6199 34.5108 28.5551 34.4106Z" fill="#FFE5BC"/>
<path d="M22.9569 33.4365C23.0289 33.6894 22.905 33.7321 22.6639 33.7338C20.8057 33.7502 19.1065 32.165 18.9859 30.3088C18.9709 30.0739 19.0194 30.0378 19.2404 30.0394C21.1455 30.0575 22.8882 31.641 22.9585 33.4365H22.9569Z" fill="#FFE5BC"/>
<path d="M22.6086 49.9321C20.6566 49.8467 19.175 48.4324 18.9909 46.5531C18.9641 46.2805 19.026 46.2493 19.2738 46.2624C21.2074 46.356 22.6672 47.6439 22.9401 49.4952C22.9853 49.8073 23.0104 50.0455 22.6086 49.9321Z" fill="#FFE5BC"/>
<path d="M19.4212 34.4138C21.3296 34.519 22.8497 35.9826 22.9803 37.8125C22.997 38.0441 22.9535 38.1148 22.7309 38.0786C20.7152 37.7616 19.448 37.0766 19.0328 34.8245C18.9524 34.3925 18.9725 34.3892 19.4212 34.4138Z" fill="#FFE5BC"/>
<path d="M18.9609 38.6486C21.1824 38.6486 22.7025 39.948 22.9637 41.9701C23.0105 42.3331 22.8431 42.412 22.6155 42.2921C21.76 41.842 20.7472 41.6629 19.9938 41.1028C19.2555 40.5541 19.0731 39.5899 18.9592 38.6486H18.9609Z" fill="#FFE5BC"/>
<path d="M25.2136 42.3282C24.9123 42.3726 24.919 42.2034 24.9391 41.9931C25.0998 40.1599 26.7672 38.647 28.6355 38.6256C28.9033 38.6224 28.9686 38.7045 28.9234 38.9394C28.7728 39.7114 28.5283 40.4441 28.0111 41.0617C27.9056 41.1882 27.7917 41.3048 27.6176 41.3492C26.8877 41.5332 26.1947 41.8042 25.5652 42.2214C25.4681 42.2855 25.3325 42.2954 25.2153 42.3299L25.2136 42.3282Z" fill="#FFE5BC"/>
<path d="M24.9458 46.2591C25.0161 44.1811 26.6333 42.6058 28.6489 42.5779C28.9469 42.573 28.9569 42.7011 28.9167 42.9064C28.7928 43.5504 28.597 44.1696 28.227 44.7249C28.1332 44.8645 28.0278 44.9713 27.8436 45.0025C26.8442 45.1766 25.9485 45.5774 25.1651 46.218C25.1249 46.2509 25.0496 46.2427 24.9441 46.2607L24.9458 46.2591Z" fill="#FFE5BC"/>
<path d="M19.2822 42.596C21.2693 42.7192 22.6387 43.915 22.9233 45.7811C22.9451 45.924 23.0891 46.1162 22.8949 46.2213C22.7442 46.3035 22.6371 46.1326 22.5266 46.0488C21.8954 45.5577 21.1839 45.2144 20.3954 45.0797C19.8982 44.9959 19.6254 44.738 19.4395 44.3191C19.2403 43.869 19.083 43.4091 19.0009 42.9196C18.9557 42.6485 18.9775 42.5171 19.2805 42.596H19.2822Z" fill="#FFE5BC"/>
<path d="M23.9581 31.7527C23.6249 31.0907 23.2617 30.5027 22.7578 30.0066C22.5619 29.8144 22.6657 29.5384 22.7176 29.3052C22.8984 28.5134 23.2767 27.8202 23.8509 27.1927C24.4771 27.8662 24.8688 28.63 25.0329 29.5072C25.0981 29.8604 25.0546 30.1791 24.7667 30.4599C24.4151 30.8049 24.2209 31.2632 23.9564 31.7527H23.9581Z" fill="#FFE5BC"/>
<path d="M43.4026 12.5286C45.2592 12.5286 47.1124 12.5302 48.9656 12.527C49.2619 12.527 49.3657 12.6551 49.364 12.9393C49.3607 13.2563 49.1782 13.3056 48.9171 13.3056C47.8322 13.3023 46.7458 13.3056 45.6609 13.3056C45.2022 13.3056 44.7385 13.2678 44.2848 13.3154C43.6972 13.3779 43.4344 13.138 43.4043 12.5302L43.4026 12.5286Z" fill="#9E8CE0"/>
<path d="M23.5479 35.1875H24.4251C24.2694 35.4882 24.1355 35.7477 23.9747 36.0598C23.7839 35.7526 23.6131 35.5095 23.5495 35.1875H23.5479Z" fill="#9E8CE0"/>
<path d="M23.9898 40.3471C23.7638 40.0515 23.6416 39.8083 23.5579 39.5258C23.8274 39.4535 24.1538 39.373 24.2677 39.557C24.41 39.7903 24.1003 40.017 23.9898 40.3471Z" fill="#9E8CE0"/>
<path d="M46.4361 38.5501C46.0042 37.5973 45.7263 36.6183 45.7129 35.5785C45.7012 34.7407 45.6962 34.7407 46.6052 34.6372C46.2553 33.8882 45.9105 33.149 45.8234 32.3342C45.7849 31.9679 45.7564 31.6016 45.7112 31.2369C45.6543 30.7655 45.6811 30.3992 46.3357 30.4172C46.7944 30.4287 46.5433 30.138 46.4562 29.9671C45.9188 28.9208 45.7163 27.8087 45.6978 26.644C45.6912 26.2301 45.8502 26.1118 46.2285 26.0921C47.1761 26.0428 48.1052 26.1217 49.0075 26.4108C49.3624 26.5241 49.5299 26.5241 49.6537 26.0872C50.007 24.8552 50.7754 23.8646 51.7062 22.9825C51.969 22.7345 52.1398 22.7066 52.421 22.9743C53.397 23.9024 54.1922 24.9373 54.5254 26.2531C54.6107 26.5915 54.7246 26.6391 55.0611 26.511C56.0053 26.1512 56.9997 26.0592 58.0108 26.0839C58.4695 26.0954 58.6637 26.2317 58.6553 26.7278C58.6336 28.0009 58.3507 29.1967 57.7229 30.2973C57.7865 30.3499 57.82 30.3975 57.8484 30.3959C58.6202 30.3367 58.6838 30.7704 58.6503 31.3848C58.5884 32.5264 58.282 33.5925 57.7513 34.6077C58.3629 34.7347 58.6576 35.1109 58.6353 35.7362C58.6051 36.5838 58.4143 37.3986 58.0795 38.1772C57.9673 38.4367 57.8719 38.647 58.2887 38.6601C58.6587 38.6716 58.642 38.9262 58.642 39.1776C58.6369 42.2608 57.2391 44.9368 53.1978 45.124C52.8144 45.1421 52.6956 45.2554 52.7073 45.625C52.7324 46.402 52.7173 47.1823 52.714 47.9593C52.7106 48.4455 52.5449 48.8266 51.9707 48.8167C51.4199 48.8085 51.291 48.4143 51.2826 47.9691C51.2709 47.2118 51.2592 46.4529 51.286 45.6957C51.2994 45.2965 51.2023 45.1421 50.7503 45.0994C47.4623 44.7823 45.3999 42.2641 45.6962 39.0166C45.743 38.5008 46.1448 38.716 46.4328 38.5468L46.4361 38.5501ZM47.5645 27.5344C47.2045 27.4391 47.1727 27.6461 47.233 27.9384C47.6733 30.0854 48.8502 30.9527 50.9378 31.2106C51.1487 31.2369 51.2257 31.1909 51.2157 30.9544C51.1269 29.1507 49.4796 27.5886 47.5645 27.536V27.5344ZM53.4138 31.2074C55.3189 31.1646 56.8992 29.7503 57.1235 27.9237C57.1637 27.5951 57.0884 27.5114 56.7402 27.5261C54.8568 27.6066 53.3719 28.998 53.1459 30.9084C53.1158 31.1597 53.1626 31.2599 53.4138 31.2074ZM57.1235 40.3767C57.219 40.0482 57.0147 40.0531 56.7469 40.0646C54.8552 40.1467 53.3669 41.5463 53.1459 43.4436C53.1158 43.6982 53.171 43.759 53.4288 43.754C55.3189 43.7162 56.998 42.1984 57.1252 40.3767H57.1235ZM53.3267 35.5538C55.5499 35.2007 56.6665 34.4286 57.1202 32.2702C57.219 31.8004 56.9645 31.8283 56.6464 31.8611C54.7279 32.055 53.4204 33.3215 53.1509 35.2122C53.1074 35.5226 53.2078 35.5752 53.3267 35.5538ZM47.5712 31.8562C47.31 31.7971 47.1744 31.8628 47.2179 32.2291C47.4305 34.036 49.0728 35.5193 50.8942 35.5407C51.1906 35.544 51.2341 35.4668 51.1939 35.1957C50.9143 33.2738 49.5533 31.9958 47.5712 31.8578V31.8562ZM47.5678 40.0695C47.2163 39.9726 47.1878 40.1648 47.2263 40.4671C47.4607 42.3134 49.0042 43.6801 50.9227 43.7458C51.1973 43.7557 51.2274 43.6752 51.2006 43.4354C50.9863 41.5496 49.483 40.1402 47.5678 40.0695ZM57.1286 36.3965C57.2006 36.0614 57.0114 36.091 56.7703 36.1091C54.8836 36.2487 53.6649 37.2671 53.2413 39.102C53.1911 39.3221 52.9617 39.6293 53.2145 39.7722C53.4271 39.8938 53.7302 39.7328 53.9629 39.5784C54.4852 39.2334 55.0611 39.0051 55.6704 38.8605C55.8596 38.8162 56.0253 38.7505 56.1542 38.6059C56.7218 37.9702 56.9863 37.208 57.1286 36.3965ZM51.2039 39.5324C51.1052 37.6844 49.3055 36.0434 47.459 36.0894C47.2648 36.0943 47.2179 36.1337 47.2045 36.3193C47.1342 37.3378 48.0315 38.6552 49.026 38.9476C49.4863 39.0839 49.9132 39.2843 50.3267 39.5225C50.5042 39.6244 50.6933 39.7114 50.8875 39.7755C51.1018 39.8461 51.2676 39.81 51.2056 39.5307L51.2039 39.5324ZM52.1532 29.1622C52.4076 28.7647 52.5968 28.336 52.9048 28.0157C53.2882 27.6132 53.3116 27.1861 53.2011 26.7147C53.0438 26.0477 52.719 25.4564 52.3022 24.9094C52.1431 24.7008 52.0376 24.64 51.8485 24.8897C51.3663 25.5221 51.0098 26.2071 50.8792 26.9906C50.849 27.168 50.8189 27.352 50.988 27.5031C51.5036 27.9647 51.8351 28.5594 52.1548 29.1639L52.1532 29.1622ZM51.6928 32.6447C51.8652 32.9781 52.0025 33.2459 52.1682 33.5679C52.3373 33.236 52.4813 32.9584 52.6353 32.6578C52.3005 32.5757 52.0393 32.5855 51.6928 32.6447ZM52.6152 36.9583C52.272 36.9501 51.9205 36.8072 51.8334 37.0306C51.7464 37.2556 51.9924 37.5234 52.1933 37.7813C52.3373 37.5004 52.4562 37.2688 52.6135 36.96L52.6152 36.9583Z" fill="#040302"/>
<path d="M47.5644 27.5344C49.4779 27.5886 51.1269 29.1507 51.2156 30.9527C51.2274 31.1893 51.1504 31.2353 50.9377 31.209C48.8502 30.9511 47.6733 30.0838 47.233 27.9368C47.1727 27.6444 47.2028 27.4374 47.5644 27.5327V27.5344Z" fill="#FFE5BC"/>
<path d="M53.4136 31.2074C53.1642 31.2599 53.1173 31.1597 53.1458 30.9084C53.3701 28.998 54.8567 27.6066 56.7401 27.5261C57.0883 27.5114 57.1636 27.5951 57.1234 27.9237C56.8991 29.7503 55.3188 31.1646 53.4136 31.2074Z" fill="#FFE5BC"/>
<path d="M57.1253 40.3767C56.998 42.1984 55.3189 43.7146 53.4288 43.754C53.1727 43.759 53.1175 43.6982 53.1459 43.4436C53.3669 41.5463 54.8569 40.1467 56.7469 40.0646C57.0148 40.0531 57.219 40.0465 57.1236 40.3767H57.1253Z" fill="#FFE5BC"/>
<path d="M53.3282 35.5539C53.2094 35.5752 53.1089 35.5226 53.1524 35.2122C53.4203 33.3198 54.7294 32.055 56.648 31.8611C56.966 31.8283 57.2205 31.8004 57.1217 32.2702C56.668 34.4286 55.5514 35.2007 53.3282 35.5539Z" fill="#FFE5BC"/>
<path d="M47.5727 31.8562C49.5548 31.9942 50.9159 33.2722 51.1954 35.1941C51.2356 35.4651 51.1921 35.5424 50.8958 35.5391C49.0744 35.5194 47.4321 34.036 47.2195 32.2275C47.1759 31.8611 47.3115 31.7971 47.5727 31.8546V31.8562Z" fill="#FFE5BC"/>
<path d="M47.5711 40.0679C49.4863 40.1385 50.9896 41.5479 51.2039 43.4337C51.2307 43.6736 51.2005 43.7524 50.926 43.7442C49.0075 43.6785 47.4623 42.3118 47.2296 40.4654C47.1911 40.1632 47.2195 39.971 47.5711 40.0679Z" fill="#FFE5BC"/>
<path d="M57.1317 36.3965C56.9894 37.208 56.7266 37.9719 56.1574 38.6059C56.0285 38.7505 55.8628 38.8162 55.6736 38.8605C55.0642 39.0067 54.4883 39.2334 53.966 39.5784C53.7317 39.7328 53.4303 39.8938 53.2177 39.7722C52.9649 39.6277 53.1943 39.3205 53.2445 39.102C53.668 37.2655 54.8868 36.2487 56.7735 36.1091C57.0146 36.091 57.2037 36.0631 57.1317 36.3965Z" fill="#FFE5BC"/>
<path d="M51.2071 39.5324C51.269 39.8116 51.1033 39.8478 50.889 39.7771C50.6948 39.7131 50.5057 39.626 50.3282 39.5242C49.9147 39.286 49.4878 39.0856 49.0274 38.9492C48.0347 38.6569 47.1357 37.3394 47.206 36.321C47.2194 36.1354 47.2663 36.0959 47.4605 36.091C49.3087 36.0434 51.1067 37.6844 51.2054 39.534L51.2071 39.5324Z" fill="#FFE5BC"/>
<path d="M52.158 29.1622C51.8382 28.5577 51.5068 27.9647 50.9911 27.5015C50.8221 27.3504 50.8522 27.1664 50.8823 26.989C51.0129 26.2054 51.3695 25.5204 51.8516 24.888C52.0425 24.6383 52.1463 24.6991 52.3053 24.9077C52.7222 25.4547 53.0469 26.0461 53.2043 26.713C53.3148 27.1845 53.2914 27.6116 52.908 28.014C52.6016 28.3343 52.4108 28.7614 52.1563 29.1606L52.158 29.1622Z" fill="#FFE5BC"/>
<path d="M51.696 32.6463C52.0426 32.5872 52.3037 32.5773 52.6386 32.6595C52.4845 32.9601 52.3423 33.2393 52.1715 33.5695C52.0058 33.2475 51.8685 32.9798 51.696 32.6463Z" fill="#9E8CE0"/>
<path d="M52.6202 36.9583C52.4611 37.2688 52.3439 37.4988 52.2 37.7797C51.9991 37.5218 51.753 37.254 51.84 37.029C51.9271 36.8056 52.277 36.9485 52.6218 36.9567L52.6202 36.9583Z" fill="#9E8CE0"/>
<path d="M24.1801 4.15664L22.5162 3.54684C22.3317 3.47923 22.1263 3.57117 22.0574 3.7522L21.7387 4.58933C21.6698 4.77035 21.7635 4.97191 21.948 5.03952L23.612 5.64931C23.7964 5.71692 24.0019 5.62498 24.0708 5.44396L24.3894 4.60683C24.4583 4.42581 24.3646 4.22425 24.1801 4.15664Z" fill="#040302"/>
<path d="M18.3962 9.04385L16.9077 9.99487C16.7427 10.1003 16.696 10.3171 16.8035 10.479L17.3004 11.2278C17.4079 11.3898 17.6288 11.4356 17.7938 11.3301L19.2823 10.3791C19.4473 10.2737 19.494 10.0569 19.3865 9.89499L18.8896 9.14614C18.7821 8.9842 18.5612 8.93841 18.3962 9.04385Z" fill="#040302"/>
<path d="M25.1637 9.77029L23.6255 10.6417C23.4549 10.7383 23.3965 10.9523 23.4949 11.1197L23.9503 11.8936C24.0488 12.0609 24.2668 12.1183 24.4374 12.0216L25.9756 11.1502C26.1462 11.0536 26.2046 10.8396 26.1062 10.6722L25.6508 9.89836C25.5523 9.73101 25.3343 9.67367 25.1637 9.77029Z" fill="#040302"/>
<path d="M30.0293 7.16741L28.2665 6.9535C28.071 6.92978 27.893 7.06602 27.8688 7.2578L27.7571 8.14465C27.7329 8.33643 27.8717 8.51112 28.0672 8.53484L29.83 8.74875C30.0254 8.77246 30.2034 8.63622 30.2276 8.44445L30.3394 7.55759C30.3636 7.36582 30.2247 7.19113 30.0293 7.16741Z" fill="#040302"/>
<path d="M34.6364 10.9287L32.8724 11.133C32.6769 11.1556 32.537 11.3296 32.5601 11.5215L32.6668 12.4089C32.6899 12.6008 32.8672 12.738 33.0627 12.7154L34.8267 12.5111C35.0223 12.4885 35.1621 12.3146 35.1391 12.1227L35.0323 11.2352C35.0092 11.0433 34.832 10.9061 34.6364 10.9287Z" fill="#040302"/>
</g>
<defs>
<clipPath id="clip0_72_81">
<rect width="64.1379" height="60" fill="white"/>
</clipPath>
</defs>
</svg>
